<?xml version="1.0" encoding="UTF-8"?>
<svg id="Capa_2" data-name="Capa 2" xmlns="http://www.w3.org/2000/svg" viewBox="0 0 745.4 407.7">
  <defs>
    <style>
      .cls-1 {
        fill: #1a428a;
      }

      .cls-2 {
        fill: #ffda00;
      }

      .cls-3 {
        fill: #ea0029;
      }
    </style>
  </defs>
  <g id="Capa_1-2" data-name="Capa 1">
    <g>
      <g>
        <path class="cls-1" d="M372.7,0C166.86,0,0,91.27,0,203.85s166.86,203.85,372.7,203.85,372.7-91.27,372.7-203.85S578.53,0,372.7,0ZM372.7,388.27c-194.55,0-352.27-82.57-352.27-184.42S178.15,19.42,372.7,19.42s352.27,82.57,352.27,184.42-157.72,184.42-352.27,184.42Z"/>
        <path class="cls-2" d="M372.7,19.42C178.15,19.42,20.43,101.99,20.43,203.85s157.72,184.42,352.27,184.42,352.27-82.57,352.27-184.42S567.25,19.42,372.7,19.42ZM372.7,359.88c-178.87,0-323.87-69.86-323.87-156.03S193.83,47.82,372.7,47.82s323.87,69.86,323.87,156.03-145,156.03-323.87,156.03Z"/>
        <ellipse class="cls-3" cx="372.7" cy="203.85" rx="323.87" ry="156.03"/>
      </g>
      <g>
        <path class="cls-2" d="M149.98,163.64c.54,0,1.61-.25,3.21-.75,1.61-.5,2.94-.75,4.02-.75,1.21,0,2.39.25,3.53.75,1.14.5,2.13,1.23,2.95,2.2,2.14,2.46,3.83,5.23,5.06,8.3,1.23,3.07,1.85,6.03,1.85,8.89,0,3.32-.76,5.89-2.28,7.71-1.52,1.82-3.65,2.73-6.4,2.73-1.71,0-3.35-.54-4.9-1.63-1.55-1.09-2.94-2.67-4.15-4.74-.39-.61-.88-1.43-1.45-2.46-1.68-2.96-3.14-4.44-4.39-4.44-.93,0-1.62.37-2.06,1.1-.45.73-.67,1.87-.67,3.4v3.75c0,2.61-.09,7.24-.27,13.9-.18,6.66-.27,11.97-.27,15.93s.29,6.57.88,8.14c.59,1.57,1.63,2.77,3.13,3.59.43.21,1,.48,1.71.8,2.61,1.14,3.91,2.84,3.91,5.09,0,3.11-1.97,5.35-5.92,6.72-3.94,1.37-10.34,2.06-19.2,2.06-7.17,0-12.75-.76-16.73-2.27-3.98-1.52-5.97-3.63-5.97-6.35,0-2.39,1.61-4.25,4.82-5.57,1.29-.53,2.2-.98,2.73-1.34,1.25-.93,2.2-4.11,2.86-9.53.66-5.43.99-12.82.99-22.17v-4.98c0-5.07-.23-8.33-.7-9.77-.46-1.45-1.3-2.17-2.52-2.17-1.28,0-2.86,1.36-4.71,4.07-.53.79-.96,1.41-1.28,1.88-2.04,2.75-3.75,4.61-5.14,5.57-1.39.96-2.93,1.44-4.61,1.44-2.11,0-3.85-.79-5.22-2.38-1.37-1.59-2.06-3.61-2.06-6.08,0-2.07.54-4.48,1.61-7.23,1.07-2.75,2.55-5.53,4.44-8.35,1.46-2.14,2.92-3.77,4.36-4.87,1.45-1.11,2.85-1.66,4.2-1.66.68,0,1.71.25,3.11.75,1.39.5,2.43.75,3.11.75h38.39Z"/>
        <path class="cls-2" d="M174.12,203.34c0-24.57,20.07-41.12,44.96-41.12,26.32,0,43.21,18.31,43.21,41.45,0,24.57-19.52,41.02-45.18,41.02s-42.99-18.75-42.99-41.34ZM224.02,229.66c5.92,0,8.88-5.7,8.88-13.82,0-13.82-8.99-38.38-20.61-38.38-5.92,0-8.77,5.59-8.77,13.6,0,13.93,8.88,38.6,20.51,38.6Z"/>
        <path class="cls-2" d="M319.95,242.93h-18.64c-9.1,0-15.46.44-20.29.44-9.65,0-14.36-1.86-14.36-6.8,0-3.4,2.85-5.15,4.6-6.03,2.52-1.31,2.42-2.63,2.42-5.48v-43.54c0-2.85-.66-3.95-2.96-5.26-2.41-1.31-3.95-2.63-3.95-5.37,0-6.25,9.54-7.9,22.15-7.9,13.82,0,21.06,1.65,21.06,7.68,0,3.18-1.87,4.28-4.61,5.59-2.85,1.32-2.74,3.07-2.74,5.59v37.61c0,8.99.44,10.53,5.7,10.53h1.54c4.71,0,7.13-.55,8.88-2.74,1.75-2.08,3.29-6.58,4.5-9.76,1.64-4.61,3.95-7.9,8.11-7.9s7.9,4.06,7.9,13.16c0,12.17-5.92,22.81-13.27,22.81-2.63,0-4.71-.99-6.03-2.63Z"/>
        <path class="cls-2" d="M345.48,236.02c0-2.74,1.54-4.06,3.95-5.37,2.3-1.31,2.3-2.41,2.3-5.26v-43.87c0-2.85,0-3.95-2.3-5.26-2.42-1.31-3.95-2.63-3.95-5.37,0-6.25,8.55-7.9,20.73-7.9s20.73,1.65,20.73,7.9c0,2.74-1.54,4.06-4.06,5.37-2.19,1.21-2.19,2.41-2.19,5.26v43.87c0,2.85,0,4.06,2.19,5.26,2.52,1.32,4.06,2.63,4.06,5.37,0,6.25-8.55,7.9-20.73,7.9s-20.73-1.65-20.73-7.9Z"/>
        <path class="cls-2" d="M421.25,242.82c-4.28,0-8.01.33-11.96.33-8.77,0-13.6-1.75-13.6-6.69,0-3.4,3.07-5.15,4.5-6.03,2.41-1.54,2.41-2.52,2.41-5.48v-43.32c0-2.96,0-3.95-2.41-5.48-1.43-.88-4.5-2.74-4.5-6.03,0-4.93,4.82-6.69,13.6-6.69,3.84,0,7.9.22,11.74.22,7.13,0,15.79-.44,21.27-.44,14.47,0,28.62,5.15,28.62,20.18,0,9.87-6.36,14.37-11.4,16.67,6.58,1.21,16.01,7.46,16.01,19.96,0,18.1-19.74,23.25-31.47,23.25-12.72,0-17.55-.44-22.81-.44ZM434.3,197.41c6.91,0,9.32-4.82,9.32-10.86,0-6.47-2.63-11.3-7.56-11.3-1.54,0-3.18.33-3.84,1.43-.66,1.1-.66,2.63-.66,4.93v15.68l2.74.11ZM432.32,229.22c.77,1.42,2.52,1.97,4.83,1.97,5.38,0,8.99-4.28,8.99-11.3,0-7.57-4.17-11.73-11.07-11.73-.99,0-2.3.11-3.51.22v15.57c0,1.97,0,3.95.76,5.26Z"/>
        <path class="cls-2" d="M480.18,203.34c0-24.57,20.07-41.12,44.96-41.12,26.32,0,43.21,18.31,43.21,41.45,0,24.57-19.52,41.02-45.18,41.02s-42.99-18.75-42.99-41.34ZM530.07,229.66c5.92,0,8.88-5.7,8.88-13.82,0-13.82-8.99-38.38-20.62-38.38-5.92,0-8.77,5.59-8.77,13.6,0,13.93,8.88,38.6,20.51,38.6Z"/>
        <path class="cls-2" d="M586.65,236.13c0-2.85,1.97-3.95,5.15-5.59,3.07-1.54,3.07-2.85,3.07-5.15v-19.08c-.99-2.74-2.3-5.26-4.71-8.44-9.1-12.06-14.15-18.42-19.63-20.62-3.29-1.31-5.37-2.41-5.37-6.03,0-6.25,8.88-8.22,23.25-8.22s23.69,1.65,23.69,8.01c0,2.3-1.21,3.84-4.06,5.48-1.75,1.1-1.97,1.87-1.86,3.62.22,2.63,5.26,9.98,9.76,14.15,4.61-4.39,10.2-12.28,10.53-15.46.11-.88,0-1.54-1.42-2.3-3.29-1.64-4.83-2.96-4.83-5.7,0-5.92,6.47-7.79,17.11-7.79s17.33,1.97,17.33,7.46c0,3.29-1.75,4.71-6.03,6.14-5.26,1.86-11.3,8.99-19.85,21.06-2.42,3.51-3.84,6.14-4.94,9.1v18.64c0,2.52.11,3.62,3.18,5.15,3.29,1.65,5.15,2.96,5.15,5.59,0,6.14-9.43,7.79-22.81,7.79s-22.7-1.65-22.7-7.79Z"/>
      </g>
    </g>
  </g>
</svg>