<?xml version="1.0" encoding="UTF-8"?>
<svg id="Capa_2" data-name="Capa 2" xmlns="http://www.w3.org/2000/svg" xmlns:xlink="http://www.w3.org/1999/xlink" viewBox="0 0 372.17 379.29">
  <defs>
    <style>
      .cls-1 {
        fill: #4e2c1d;
      }

      .cls-2 {
        fill: #9d968d;
        opacity: .5;
      }

      .cls-3 {
        fill: #fff;
      }

      .cls-4 {
        fill: #e52d3a;
      }

      .cls-5, .cls-6 {
        fill: none;
      }

      .cls-7 {
        fill: #1a428a;
      }

      .cls-8 {
        fill: #c81430;
      }

      .cls-9 {
        fill: #ffda00;
      }

      .cls-10 {
        clip-path: url(#clippath-1);
      }

      .cls-11 {
        fill: #e6b789;
      }

      .cls-6 {
        stroke: #4e2c1d;
        stroke-miterlimit: 10;
        stroke-width: .33px;
      }

      .cls-12 {
        fill: #e63642;
      }

      .cls-13 {
        fill: #f3cfb2;
      }

      .cls-14 {
        clip-path: url(#clippath);
      }

      .cls-15 {
        fill: #ea0029;
      }
    </style>
    <clipPath id="clippath">
      <path class="cls-1" d="M196.67,116.29c0-.22-.13-.42-.33-.52-.2-.1-.44-.07-.62.06-9.77,7.41-23.52,9.45-35.03,5.21-.2-.08-.43-.03-.6.11-.16.14-.23.36-.19.58,2.44,10.69,11.35,15.93,19.28,15.93.72,0,1.43-.04,2.13-.13,4.34-.54,8.21-2.67,10.9-6.01,3.04-3.77,4.57-9.04,4.44-15.23Z"/>
    </clipPath>
    <clipPath id="clippath-1">
      <path class="cls-5" d="M65.13,167.5s7.92,10.67,35.1,11.69c1.08.04,22.41,19.26,22.41,19.26l-26.72,17.58-67.81-9.15,2.82-48.73,34.21,9.33Z"/>
    </clipPath>
  </defs>
  <g id="Capa_1-2" data-name="Capa 1">
    <g>
      <g>
        <g>
          <path class="cls-13" d="M334.28,86.11c.21,1.53-.08,3.28-.85,5.35-2.83,7.47-8.95,12.42-19.22,15.57-.25.08-.46.22-.62.39-1.72-.33-3.49-.34-5.2.03-.08-.54-.15-1.02-.21-1.44-.36-2.41-.91-4.96-2.14-7.13,1.4-.57,3.14-1.93,5.24-3.64.69-.56,1.33-1.09,1.76-1.4,3.1-2.18,6.09-4.62,8.92-7.25l.51-.48c1.42-1.33,2.76-2.59,4.33-3.44,1.79-.94,3.65-1.09,5.01-.42,1.29.63,2.23,2.12,2.47,3.86Z"/>
          <path class="cls-13" d="M321.19,116.63c1.96,4.64.09,10.59-4.17,13.26-2.17,1.37-4.76,1.82-6.95,1.23-2.05-.55-3.74-2.07-4.43-3.87,2.45-1.14,4.22-3.64,4.31-7.07.13-2.33-.53-6.36-1.1-9.8,4.87-1.14,10.39,1.65,12.34,6.26Z"/>
          <path class="cls-13" d="M316.48,73.51c.34,8-3.71,15.61-12.01,22.62-.13.11-.22.24-.3.37-5.08-4.69-14.03-2.21-17.88,2.9-.4.5.33,1.23.83.79,3.44-2.64,7.9-4.16,12.12-3.5,4.45.92,5.67,5.48,6.24,9.73l1.28,9.24c.4,2.72.84,5.71-.81,7.93-1.49,2.03-4.62,1.86-6.62.58-2.26-1.39-3.74-4.03-4.95-6.77-1.23-2.76-2.21-5.6-3.12-8.53-.26-.86-1.58-.63-1.52.26.57,6.2,2.76,13.61,8.13,17.36,1.62,1.02,3.3,1.46,4.89,1.41.77,2.35,2.57,4.33,4.91,5.44-4.6,3.28-11.54,4.32-16.73,2.17-1.82-1.24-3.71-2.53-5.26-3.84-4.44-3.7-8.03-8.44-10.8-13.52-.34-.57-.61-1.15-.88-1.74-.46-2.78-.43-5.61.2-8.34,1.96-8.52,9.39-16.24,18.07-17.65.59-.07.98-.36,1.23-.73,2.39-1.48,3.97-4.04,5.16-5.97,2-3.26,3.8-6.68,5.34-10.17l.31-.69c.77-1.77,1.5-3.44,2.6-4.81,1.27-1.56,2.92-2.46,4.44-2.36,1.44.09,2.89,1.07,3.8,2.58.8,1.32,1.23,3.04,1.31,5.25Z"/>
          <path class="cls-4" d="M291.16,139.19c1.19.97,2.94,1.61,2.83,3.07-.2,1.28-.97,2.01-2.49,1.63-2.56-.54-4.76-2.82-6.83-4.39-4.51-3.69-8.84-7.76-12.46-12.28-2.77-3.7-5.6-7.68-5.8-12.24.07-2.4,2.3-2.8,3.46-.77.51,1.09,1.06,2.19,1.62,3.27h0c.07.31.2.54.37.7,3.11,5.81,7.01,11.27,12.05,15.59,2.25,1.96,4.87,3.67,7.25,5.4Z"/>
          <path class="cls-3" d="M285.12,143.84c-.32.33-.65.65-.98.97-.26.26-.53.52-.8.76-.07.07-.13.13-.19.19-.11.09-.22.19-.32.29-.23.22-.46.43-.69.63-.34.31-.68.61-1.03.91-.34.3-.69.59-1.04.88-.25.21-.51.42-.76.62-1.12.91-2.27,1.77-3.44,2.61-.29.21-.58.42-.87.62-.37.26-.74.52-1.12.77-.28.19-.56.37-.84.56-.12.08-.23.15-.34.22-.28.19-.57.37-.85.54-2.06,1.3-4.17,2.51-6.33,3.62-.36.19-.72.37-1.08.56-.36.18-.72.36-1.09.54-.37.18-.73.36-1.1.53-.37.17-.73.34-1.11.51-1.11.51-2.22.99-3.35,1.46-.47.19-.94.38-1.42.57-.39.16-.78.31-1.18.46-.43.17-.86.33-1.29.48-.47.18-.94.34-1.41.51-.39.14-.78.27-1.18.41-.3.11-.61.21-.91.31-.17.06-.34.12-.52.18-.01,0-.02,0-.03.01-.38.12-.76.24-1.14.36-.44.14-.87.27-1.31.41-.91.29-.58,1.68.35,1.56,1.07-.17,2.12-.38,3.17-.61.3-.06.61-.13.91-.2.3-.07.61-.14.91-.22.3-.07.6-.15.9-.23.3-.07.6-.16.89-.23.36.38.7.78,1.04,1.18,2.36,2.82,4.39,6.04,6.12,9.38,1.9,3.71,3.48,7.52,4.76,11.41-1.67-.44-3.36-.87-5.05-1.28-22.77-5.52-47.94-8.6-74.42-8.67-.75-7.8-.81-14.9.24-19.69h0c.81-.14,1.63-.28,2.44-.44,2.44-.46,4.87-.99,7.28-1.66,1.46-.43,3.63-1.11,6.06-1.99.46-.17.92-.34,1.39-.52.16-.06.31-.12.47-.18.32-.12.63-.25.96-.38.32-.13.64-.26.97-.39.32-.13.64-.27.97-.41.48-.21.97-.43,1.45-.65,1.12-.52,2.23-1.07,3.27-1.66.3-.17.6-.34.89-.51.29-.17.57-.34.85-.52.7-.44,1.36-.89,1.96-1.36.24-.19.47-.38.69-.57,1.91-1.62,3.15-3.39,3.19-5.25.09-1.11-.32-2.13-1.02-2.86-.04-.05-.09-.09-.14-.14-.01-.01-.03-.03-.04-.04-.03-.03-.07-.06-.1-.09h0c1.29-1.16,2.49-2.38,3.59-3.68.07,0,.13.01.19.02.4.04.81.08,1.22.11,14.89,1.04,29.17-4.48,41.29-12.94.39.86.82,1.69,1.21,2.46.22.37.43.74.66,1.11.08.13.16.26.23.38.22.35.44.69.67,1.04.04.05.07.11.11.16.27.41.56.81.84,1.21.27.38.55.76.84,1.13.03.03.05.07.08.1.28.37.58.74.88,1.11.04.06.09.12.14.18.3.37.61.73.92,1.09.24.28.48.55.72.82.48.54.97,1.07,1.47,1.59.21.22.42.43.63.65.08.08.17.17.26.26.38.38.76.75,1.14,1.13.03.03.06.06.08.08.42.39.83.78,1.26,1.17.42.39.85.77,1.28,1.15.42.37.84.73,1.26,1.09.64.55,1.29,1.09,1.95,1.62.38.31.76.62,1.15.92.38.31.77.61,1.16.91.38.3.77.59,1.16.89Z"/>
          <path class="cls-13" d="M224.42,107.47c2.26,9.18.47,18.92-4.57,24.8-8.13,9.52-21.74,15.14-41.61,17.19-.19.02-.36.08-.51.15-15.58,1.3-27.53-1.06-36.3-7.19-6.19-4.32-10.29-11.65-11.01-19.63-.68-7.66,1.78-14.7,6.94-19.85.01-.02.01-.04.03-.05.11-.13.22-.26.28-.43.05-.15.08-.31.09-.47.01-.03.02-.05.02-.1,0-.08.01-.16.02-.25v-.16c.12-1.5.22-2.99.31-4.47.13-2.59.22-4.9.24-7.06,0-.96-.01-1.88-.03-2.78,11.17-6.1,22.38-10.23,33.36-12.26,12.68-2.33,25.25-1.85,36.44,1.37.11.73.22,1.52.34,2.32.55,3.88,1.16,8.23,1.91,10.59-.08.71.32,1.41,1.01,1.68,6.32,2.53,11.07,8.58,13.04,16.6Z"/>
          <path class="cls-3" d="M204.13,5.59c14.68,4.35,20.64,22.06,14.33,35.43-3.02,6.83-9.5,11.41-16.91,12.37-.2.03-.35.13-.45.25l-3.23-.1c.18-.31.05-.8-.39-.88-1.4-.25-2.79-.46-4.19-.63,3.45-3.89,5.57-8.87,5.83-13.96.02-.36-.24-.69-.61-.73-.38-.05-.73.22-.79.6-.68,5.16-3.39,9.93-7.24,13.21-.2.18-.33.36-.4.56-6.54-.58-13.12-.42-19.64.38.81-4.45-.02-9.06-2.22-12.79-.2-.33-.6-.46-.95-.31-.38.16-.56.6-.39.98,1.75,4.06,1.74,8.73.13,12.58-8.24,1.29-16.32,3.58-24.05,6.7-4-3.07-7.8-6.97-8.8-12.05-.08-.43-.47-.73-.91-.69-.47.03-.82.45-.78.92.26,2.92,1.44,5.7,3.03,8.11,1.21,1.85,2.64,3.53,4.19,5.08-2.3,1.01-4.56,2.1-6.78,3.25-.02-.01-.04-.02-.07-.02-8.17-2.23-15.78-7.16-20.39-14.17-10.6-15.67-2.56-34.75,16.62-36.72,8.29-.68,16.92,2.89,20.66,10.77.31.67,1.35.35,1.21-.39-1.06-5.31-4.26-9-8.45-11.26,2.76-3,6.55-5.14,10.54-6.6,9.8-3.47,23.97-3.95,30.01,6.02,1.1,1.86,1.87,3.97,2.42,6.23.05.21.24.37.46.39.28.01.54-.2.55-.48.16-2.42-.23-4.95-1.29-7.25-.39-.79-.85-1.5-1.35-2.19.03-.03.08-.05.11-.08,5.31-4.57,13.7-4.58,20.2-2.53Z"/>
          <path class="cls-4" d="M218,141.13c-.35,2.84-4.09,5.05-7.54,6.69-.32.15-.63.29-.93.43-.46.21-.9.41-1.33.6-.71.31-1.36.6-1.9.86-1.22.51-2.46.97-3.7,1.41-.41.14-.83.29-1.24.42-.84.27-1.68.53-2.52.77-4.22,1.22-8.54,2.07-12.91,2.64-.57.01-1.08.34-1.31.87t-.01,0c-.03.07-.07.14-.09.22-1.33,5.06-1.34,12.81-.53,21.35-1.87.01-3.73.04-5.59.08-.71-8.19-.72-15.48.47-19.96.01-.02.01-.05.01-.07.2-.48.13-1.07-.19-1.48-.02-.02-.03-.04-.05-.06-.03-.03-.06-.07-.09-.09-.1-.09-.21-.17-.34-.22-.09-.04-.18-.07-.28-.09-.12-.03-.24-.04-.38-.03-2.76.16-5.52.29-8.27.37-1.77-.03-5.52.13-9.13-.13-.3-.02-.59-.04-.89-.07-.07,0-.14-.01-.21-.02-.28-.03-.56-.06-.84-.09-.47-.06-.92-.13-1.36-.21-.11-.02-.22-.04-.33-.06-.17-.03-.33-.06-.49-.1-.49-.11-.95-.23-1.38-.37-.18-.06-.36-.12-.53-.19-.23-.09-.46-.18-.67-.28h0c-.19-.1-.38-.2-.55-.31-.09-.05-.17-.1-.25-.16-.26-.18-.49-.37-.68-.59-.29-.34-.49-.72-.59-1.14-.01-.08-.02-.18-.02-.27,0-.51.21-.96.58-1.27.44.13.89.26,1.34.37.07.02.14.04.22.06.28.08.57.15.87.22.2.05.4.1.61.14.35.08.71.16,1.07.23.2.04.41.08.61.12.29.06.58.12.88.17.09.02.18.03.28.05.11.02.22.04.33.06.79.14,1.6.26,2.42.36.34.04.68.08,1.02.12.23.03.47.05.71.07.4.04.81.08,1.22.11.94.08,1.91.14,2.89.18.11,0,.21.01.32.01.44.02.89.03,1.34.04.59.02,1.18.02,1.78.02,1.91,0,3.86-.06,5.88-.19.67-.04,1.36-.09,2.04-.14h0c.1.04.21.08.32.11.11.03.22.04.34.04.06,0,.12-.01.18-.01,1.67-.17,3.3-.37,4.89-.59.44-.07.88-.13,1.31-.19.74-.11,1.47-.23,2.19-.36.38-.06.76-.13,1.14-.2.38-.07.75-.14,1.12-.21.74-.14,1.47-.29,2.19-.45.36-.07.72-.16,1.08-.24,1.07-.24,2.11-.5,3.13-.77.34-.09.68-.18,1.02-.28,1.01-.28,2-.57,2.96-.89.57-.18,1.14-.37,1.7-.57.42-.14.83-.29,1.24-.44.36-.13.71-.27,1.05-.41.29-.11.58-.23.87-.34.78-.32,1.53-.64,2.27-.98.41-.18.81-.37,1.21-.57.31-.15.61-.3.91-.46.27-.13.53-.27.79-.41.74-.39,1.47-.79,2.17-1.22.15-.09.29-.18.44-.27.04-.02.07-.04.11-.06.63-.38,1.23-.77,1.83-1.18.27-.17.53-.36.78-.54.09-.06.17-.12.26-.18.32-.22.63-.46.94-.69.35-.26.69-.53,1.03-.81.03.02.07.03.1.06.48.29.75.96.7,1.67Z"/>
          <path class="cls-4" d="M207.56,72.84c0,.08.01.14.02.22-11.28-3.01-23.83-3.37-36.44-1.05-10.87,2.01-21.97,6.03-33.01,11.91-.07-.69-.13-1.37-.22-2.03-.1-.68-.19-1.36-.3-2.02-.4-2.61-.91-5.15-1.5-7.55-.5-2.02-1.04-3.86-1.62-5.56,9.61-4.7,19.69-8.39,30.15-10.62,10.72-2.28,21.72-3.02,32.68-2.32.25.01.43-.1.54-.27l3.23.1c-.32.4-.12,1.14.53,1.17,1.96.09,3.88-.18,5.72-.7-.88,4.92-.81,11.07.22,18.73Z"/>
          <path class="cls-4" d="M101.54,295.27c.13.12.27.23.4.34-.14-.12-.28-.24-.42-.36-.16-.14-.31-.28-.46-.43.16.15.32.29.48.44Z"/>
          <path class="cls-3" d="M134.55,195.3c.02-1.02.07-2.04.14-3.06-.07,1.02-.12,2.03-.14,3.06Z"/>
          <path class="cls-3" d="M135.71,183.99c.17-.97.36-1.93.57-2.9-.21.97-.4,1.93-.57,2.9Z"/>
          <path class="cls-3" d="M175.46,177.56c-13.5.41-26.61,1.61-39.18,3.52.06-.24.11-.49.16-.74.09-.42.19-.84.29-1.26.13-.54.27-1.08.41-1.62.13-.51.27-1.02.42-1.53.02-.04.03-.08.04-.13.15-.52.3-1.03.46-1.55.16-.53.33-1.06.51-1.59.16-.47.31-.94.48-1.42.02-.06.04-.11.06-.16.09-.26.18-.52.28-.78.36-.99.74-1.98,1.13-2.96.12-.3.24-.6.37-.9.03-.09.07-.17.11-.26.28-.66.57-1.32.86-1.97.31-.69.63-1.37.96-2.05.24-.46.06-.89-.26-1.13h0c-.07-.06-.14-.11-.23-.13-.28-.12-.62-.11-.89.11-.02.02-.05.04-.08.07s-.05.05-.07.08c-.49.61-.95,1.23-1.38,1.88-.16.23-.31.46-.45.69-.21.32-.41.66-.61.99-.13.23-.26.45-.37.68-.06.09-.11.19-.16.29-.12.22-.24.44-.34.66-.05.09-.09.18-.14.28-.14.27-.27.54-.39.82-.15.31-.29.62-.42.93,0,.01,0,.02-.01.03-.11.24-.21.48-.31.72-.86-.52-1.74-.99-2.64-1.42-1.21-.58-2.44-1.07-3.72-1.48-1.59-.52-3.22-.9-4.88-1.14-1.35-.19-2.72-.29-4.09-.29-.18,0-.36,0-.53,0-.66,0-1.33.02-2.01.05-1.84.07-3.73.22-5.57.6-.81.16-1.61.37-2.39.63-.75.25-1.48.55-2.18.92-.12.06-.24.12-.36.19-.14.07-.28.16-.42.24-.09.05-.19.11-.28.17-.14.08-.28.18-.41.27-.26.17-.5.36-.74.56-.15.12-.29.24-.43.36-.3.26-.59.54-.87.85-.02.01-.03.02-.03.03-.11.12-.22.24-.32.36h0c-.11-.01-.23-.02-.33-.02h0c-.61-.06-1.21-.11-1.81-.14-.12-.01-.23-.02-.34-.03-.13-.01-.26-.02-.38-.03-.28-.02-.56-.04-.83-.06-.87-.06-1.74-.12-2.61-.19-.68-.05-1.37-.11-2.04-.16-.82-.07-1.62-.15-2.42-.23-.39-.04-.79-.09-1.18-.14-.75-.09-1.5-.19-2.24-.31-.4-.07-.81-.13-1.21-.21-.27-.05-.53-.1-.8-.15-.41-.08-.81-.16-1.21-.25-.13-.03-.27-.06-.39-.09-.2-.04-.4-.09-.6-.14-.36-.09-.72-.18-1.08-.28-.24-.07-.47-.13-.71-.21-.2-.06-.4-.12-.59-.18-.18-.06-.37-.12-.55-.17-.38-.13-.76-.26-1.13-.4-.23-.08-.46-.17-.69-.26-2.83-1.22-5.85-2.63-8.58-4.21,2.2-5.03,5.72-9.37,10.05-12.77,3.53-2.75,7.45-5.05,11.62-6.88,1.13-.5,2.29-.97,3.46-1.4h0c.39-.14.78-.28,1.18-.42,2.36-.82,4.78-1.49,7.23-2.02.41-.09.82-.17,1.23-.26,5-.98,10.13-1.38,15.18-1.16,1.37.06,2.73.16,4.08.32h0c1.35.15,2.69.34,4.02.59h0c.38.07.76.15,1.14.23.39.08.77.16,1.15.24,1.78,2.39,3.9,4.5,6.32,6.18,3.04,2.12,6.43,3.82,10.17,5.1-.26.4-.43.85-.5,1.32-.02.16-.04.31-.04.47-.03.6.07,1.21.29,1.77.2.49.48.94.83,1.31,1.22,1.19,2.68,1.88,4.25,2.32.63.18,1.28.32,1.93.43,1.43.25,2.89.38,4.27.56,3.87.31,7.75.34,11.63.28,1.04-.02,2.07-.04,3.11-.07-.21,1.1-.37,2.31-.48,3.62-.05.56-.09,1.13-.12,1.73-.02.39-.04.79-.06,1.19-.13,3.77.05,8.11.44,12.71Z"/>
          <path class="cls-13" d="M109.73,195.67c2.78,2.64.35,6.83-2.92,8.11-2.29,1.04-4.97,1.05-7.46.26-8.02-2.47-12.37-11.86-22.1-9.12-.74.22-1.51.63-2.18.94-7.54,3.51-15.86,6.37-24.24,6.14-3.18-.32-8.25-.83-8.8-4.64-.07-1.99.88-4.81,3.03-5.46,2.46-.83,5.49-.26,8.22-.54,4.5-.32,9.24-1.58,12.47-4.91.45-.43-.07-1.23-.66-.97-4.07,1.56-8.09,2.65-12.34,2.92-2.66-.1-5.78-.03-8.35.02-4.43-.01-10.97-3.5-7.55-8.48,2.18-2.83,5.44-2.99,8.84-2.02l2.72.71c.78.16,1.54.39,2.36.48,3.98.83,8.23.35,12.05-1.01.54-.18.32-1.03-.24-.92-2.01.31-4.05.34-6.02.12-3.12-.57-14.52-2.3-12.11-7.09.65-1.43,2.16-2.53,3.67-2.6,2.23-.19,5.16,2.09,7.77,2.51,3.49.63,7.1.97,10.6-.15.12-.04.22-.09.31-.15.15.15.32.31.47.44,7.36,5.93,16.77,7.46,25.8,8.59,1.51.05,3.33.33,5.2.5-.63,1.26-.77,3.56-.8,4.34-.03,3.26,1.88,6.63,4.68,8.26,2.34,1.6,5.55,2.16,7.58,3.73Z"/>
          <path class="cls-4" d="M106.21,174.45c0,.22-.05.46-.16.69-.55,1.12-2.28,1.77-4,1.78-10.83-.56-24.17-1.95-32.85-8.85-1.13-1.01-2.25-2.23-1.96-3.65.3-1.06,1.39-1.49,2.46-.75,3.57,2.22,7.14,3.69,11.04,5.15,7.48,2.69,15.86,3.15,23.53,3.63,1.01.19,1.95,1.03,1.95,2Z"/>
          <path class="cls-1" d="M166.52,89.52c-3.27-5-11.49-3.55-13.43,1.98-.21.68-1.29.45-1.21-.25.39-5.66,7.5-8.83,12.33-6.23,1.64.81,2.89,2.35,3.38,4.02.09.31-.09.64-.4.74-.26.08-.53-.03-.67-.25h0Z"/>
          <g>
            <path class="cls-1" d="M196.67,116.29c0-.22-.13-.42-.33-.52-.2-.1-.44-.07-.62.06-9.77,7.41-23.52,9.45-35.03,5.21-.2-.08-.43-.03-.6.11-.16.14-.23.36-.19.58,2.44,10.69,11.35,15.93,19.28,15.93.72,0,1.43-.04,2.13-.13,4.34-.54,8.21-2.67,10.9-6.01,3.04-3.77,4.57-9.04,4.44-15.23Z"/>
            <g class="cls-14">
              <path class="cls-4" d="M165.24,134.99c.16-.29.34-.55.53-.81,3.44-4.76,8.73-7.23,13.47-6.74s8.82,3.93,11.76,9.34c-9.41,3.71-18.03,3.27-25.76-1.8Z"/>
            </g>
          </g>
          <path class="cls-1" d="M161.29,117.08c.81,3.05-1.84,6.34-4.82,6.79-.3.05-.59-.15-.64-.45-.04-.22.06-.43.23-.55,1.09-.77,2.03-1.54,2.74-2.5.71-.95,1.16-2.03,1.54-3.31.12-.47.85-.45.95.02h0Z"/>
          <path class="cls-1" d="M200.53,118.21c-3.09.63-6.22-2.2-6.49-5.21-.04-.3.18-.58.49-.61.22-.03.42.08.53.26.7,1.13,1.42,2.12,2.33,2.88.91.77,1.96,1.28,3.21,1.73.47.15.4.87-.07.95h0Z"/>
          <path class="cls-1" d="M194.8,86.03c-3.27-5-11.49-3.55-13.43,1.98-.21.68-1.29.45-1.21-.25.39-5.66,7.5-8.83,12.33-6.23,1.64.81,2.89,2.35,3.38,4.02.09.31-.09.64-.4.74-.26.08-.53-.03-.67-.25h0Z"/>
          <g>
            <g>
              <path class="cls-1" d="M199.24,166.09c.51,5.75-7.81,6.58-8.52.9-.38-5.52,7.72-6.39,8.52-.9ZM192.66,166.78c.44,2.92,4.66,2.42,4.52-.47-.34-3.09-4.8-2.64-4.52.47Z"/>
              <path class="cls-4" d="M197.18,166.31c.14,2.89-4.08,3.39-4.52.47-.28-3.11,4.18-3.56,4.52-.47Z"/>
            </g>
            <path class="cls-6" d="M199.24,166.09c.51,5.75-7.81,6.58-8.52.9-.38-5.52,7.72-6.39,8.52-.9Z"/>
          </g>
          <path class="cls-8" d="M101.54,295.27c.13.12.27.23.4.34-.14-.12-.28-.24-.42-.36,0,0,.02.01.02.01Z"/>
          <path class="cls-11" d="M113.67,198.49c-.03,1.35-.37,2.56-.93,3.62-.94,1-2.08,1.77-3.31,2.33-5.87,2.73-12.44-.23-17.05-3.94-1.74-1.33-3.38-2.71-5.25-3.78-2.21-1.2-4.98-1.64-7.44-1.06-.13.03-.27.06-.4.1-.36.11-.83.33-1.27.54-.23.12-.45.22-.63.31-2.69,1.29-5.47,2.44-8.3,3.41-2.78.94-5.62,1.72-8.5,2.27-5.83,1.43-16.85,1.34-19.52-3.98.47.18.96.34,1.46.49.44.12.89.23,1.36.32,4.18.84,9.15.52,12.45-.28,5.82-1.12,11.48-3.13,16.81-5.68.53-.25,1.34-.68,1.89-.86,2.56-.73,5.52-.31,7.85.96.34.2.69.41,1.02.63.07.04.13.09.2.14,1.23.82,2.39,1.74,3.58,2.67.01,0,.02.01.03.02.14.11.28.22.42.32.93.75,1.94,1.47,3.01,2.12,0,0,.01,0,.02.01,0,0,.02.01.02.01,1.77,1.07,3.7,1.94,5.69,2.43,2.74.68,5.6.63,8.31-.63,1.43-.66,2.74-1.59,3.75-2.86.5-.59.91-1.29,1.18-2.04.38-1,.53-2.09.43-3.14,1.84,1.22,3.25,3.01,3.12,5.54Z"/>
          <path class="cls-11" d="M317.39,80.42c-.52.48-1.02.98-1.52,1.47l-.48.48c-.09.09-.17.17-.26.25-.41,1.27-.93,2.53-1.56,3.77-1.88,3.74-4.78,7.35-8.65,10.81-.13.12-.22.27-.26.43-.08.09-.14.19-.18.3-.79-.97-1.75-1.74-2.92-2.22-.07-.03-.14-.06-.21-.08-.09-.14-.18-.28-.27-.42.14.12.32.17.49.17.19,0,.37-.06.53-.2,2.31-2.07,4.29-4.22,5.94-6.43,4.15-5.56,6.19-11.53,5.95-17.58-.05-1.41-.24-2.65-.54-3.77-.24-.92-.58-1.73-.99-2.47,0,0-.01-.02-.02-.02,1.54.52,2.96,1.72,3.89,3.37.93,1.64,1.43,3.68,1.53,6.24.08,1.98-.09,3.95-.5,5.9Z"/>
          <path class="cls-11" d="M306.05,123.61c-1.05,1.42-2.81,1.86-4.51,1.62-.87-.12-1.72-.41-2.44-.85-.06-.03-.11-.06-.16-.1-.27-.17-.52-.35-.77-.55.24.01.48,0,.71-.02.59-.04,1.16-.16,1.71-.34,1.09-.37,2.07-1.02,2.8-2,2.13-2.76,1.79-6.42,1.3-9.54l-.82-5.39-.25-1.65-.31-2.04c-.19-1.57-.54-3.25-1.13-4.82,1.78,1.55,2.7,4.07,3.18,6.54.12.58.2,1.16.28,1.72,0,.06.02.13.02.19l1.28,9.08c.42,2.77.83,5.85-.89,8.15Z"/>
          <path class="cls-2" d="M285.12,143.84c-9.21,9.25-21.85,17.06-35.3,20.71,11.5-4.95,24.58-14,32.98-22.51.77.61,1.54,1.21,2.31,1.8Z"/>
          <path class="cls-12" d="M210.38,89.52c.03.14.06.27.09.4-.05-.13-.08-.26-.09-.4Z"/>
          <path class="cls-2" d="M266.41,187.35c-1.67-.44-3.36-.87-5.05-1.28-2.82-8.64-6.45-15.24-10.47-19.81.31-.07.61-.13.91-.2.31-.07.61-.14.91-.22.3-.07.6-.15.9-.23s.6-.16.9-.24c.35.39.69.78,1.03,1.18,2.36,2.82,4.39,6.04,6.12,9.38,1.9,3.71,3.48,7.52,4.76,11.41Z"/>
          <path class="cls-12" d="M254.5,165.37c-1.2.32-2.4.62-3.61.88-.06-.08-.13-.15-.19-.22-.65-.72.85-.45,3.8-.66Z"/>
          <path class="cls-12" d="M268.45,187.89c-.68-.19-1.36-.37-2.04-.54-1.28-3.89-2.86-7.71-4.76-11.41-1.72-3.34-3.76-6.56-6.12-9.38-.34-.4-.68-.79-1.03-1.18,6.65,6.62,11.12,14.28,13.95,22.52Z"/>
          <path class="cls-11" d="M317.02,129.89c-2.16,1.37-4.76,1.82-6.94,1.22-.86-.23-1.66-.64-2.36-1.17.04-.06.09-.12.12-.18.15.02.29.04.45.04h0c.24.02.47.02.7.02,2.22,0,4.55-.57,6.52-1.94,6.01-4.18,5.97-8.21,5.42-12.2,3.95,5.57-.12,11.82-3.92,14.2Z"/>
          <path class="cls-11" d="M307.68,133.34c-4.6,3.28-11.55,4.32-16.73,2.17-.1-.07-.2-.14-.3-.2-.15-.13-1.62-.86-1.78-.98,5.17.84,13.34-.19,15.16-3.97.67.59,2.83,2.6,3.65,2.99Z"/>
          <path class="cls-8" d="M294.68,142.41c-.19,1.28-1.55,2.23-3.07,1.85-.8-.17-6-3.35-6.74-3.78.47-.11,3.71-2.16,3.99-3.12.96.64,5.9,3.98,5.82,5.05Z"/>
          <path class="cls-11" d="M333.42,91.46c-2.84,7.47-8.95,12.41-19.22,15.57-.25.08-.46.22-.62.39-.42-.08-.83-.14-1.25-.18,9.15-3.98,14.91-9.68,17.92-17.61,1.07-2.83,1.46-5.3,1.17-7.55.13.05.26.1.38.17,1.29.64,2.23,2.13,2.47,3.87.21,1.53-.08,3.28-.85,5.35Z"/>
          <path class="cls-2" d="M102.62,169.96c4.61-9.71,24.37-8.18,34.37-1.53-.1.24-.21.48-.31.72-4.6-2.76-9.92-4.34-15.33-4.32-.51,0-1.02,0-1.55.02-5.3.12-11.28.91-15.01,5.21l-2.18-.1Z"/>
          <path class="cls-2" d="M220.34,41.12c-2.77,6.26-8.45,10.64-15.09,12.06,17.37-11.45,15.65-31.4,12.46-39.26,5.6,7.52,6.83,18.32,2.63,27.2Z"/>
          <path class="cls-11" d="M210.6,90.5c-.65-.45-1.3-.85-1.99-1.22-.66-.36-1.34-.69-2.04-.97-.72-2.12-1.37-6.69-1.92-10.54-.02-.14-.04-.27-.06-.4-.08-.55-.15-1.09-.22-1.61-.02-.16-.05-.31-.07-.46,1.29.29,2.57.62,3.82.98.11.74.22,1.52.34,2.32.12.88.25,1.79.38,2.68.19,1.24.37,2.48.57,3.62.24,1.39.5,2.66.78,3.67.06.32.12.63.18.92,0,0,0,.01,0,.02,0,.14.03.27.09.4.04.2.09.4.13.59Z"/>
          <path class="cls-8" d="M207.58,73.06c-1.22-.33-2.46-.62-3.71-.89-.92-6.54-1.19-12.14-.78-16.73.01-.21.03-.43.05-.64,1.44-.06,2.85-.3,4.21-.69-.88,4.92-.81,11.07.22,18.73,0,.08,0,.14.02.22Z"/>
          <path class="cls-11" d="M222.44,134.54c-8.13,9.52-21.74,15.14-41.61,17.18-.18.02-.36.08-.51.16-5.27.44-10.13.46-14.59.06.1-.06.22-.09.34-.1,1.4-.14,2.77-.3,4.12-.49.21-.02.42-.05.64-.08,20.74-2.78,35.21-9.25,44.15-19.7,6.02-7.05,8.18-18.66,5.49-29.59-.56-2.29-1.32-4.44-2.24-6.44,4.18,3.14,7.28,8.1,8.78,14.2,2.26,9.18.47,18.92-4.57,24.8Z"/>
          <path class="cls-1" d="M337.21,85.72c-.38-2.76-1.92-5.03-4.08-6.1-.66-.33-1.37-.55-2.12-.65-.18-.03-.36-.06-.55-.06-1.62-.12-3.38.28-5.04,1.16-1.92,1.02-3.48,2.47-4.97,3.88l-.52.47c-1.56,1.46-3.18,2.84-4.84,4.17,3.07-4.88,4.55-10,4.34-15.2-.11-2.71-.68-4.89-1.73-6.65-1.4-2.33-3.76-3.87-6.15-4-2.46-.14-5.04,1.14-6.92,3.46-1.36,1.67-2.2,3.61-3.02,5.48l-.3.67c-1.48,3.38-3.23,6.68-5.15,9.83-1.08,1.77-2.41,3.89-4.19,4.99h-.08c-11.39,2.03-20.24,12.66-20.92,23.99-1.67-1.35-4.15-1.62-5.9-.06-1.97,2.12-1.97,4.77-1.24,7.34-12.55,8.07-24.89,13.71-39.79,13.95-.06,0-.12,0-.17,0l-.02.29-.11,1.88c14.89,1.04,29.17-4.48,41.29-12.94.39.86.82,1.69,1.21,2.46.22.37.43.74.66,1.11.08.13.16.26.23.38.22.35.44.69.67,1.04.04.05.07.11.11.16.28.41.56.81.84,1.21.27.38.56.76.84,1.13.03.03.05.07.08.1.28.37.58.74.88,1.11.04.06.09.12.14.18.3.37.61.73.92,1.09.23.28.48.55.72.82.48.54.97,1.07,1.47,1.59.21.22.42.43.63.65.08.08.17.17.26.26.38.38.76.75,1.14,1.13.03.03.06.06.08.08.42.39.83.78,1.26,1.17.42.39.85.77,1.28,1.15.42.37.84.73,1.26,1.09.64.55,1.29,1.09,1.95,1.62.38.31.77.62,1.15.92s.77.61,1.16.91c.38.3.77.59,1.16.89-.28.29-.57.58-.87.86-.04.03-.08.07-.12.11-.26.26-.53.52-.8.76-.17.17-.34.33-.52.48-.18.17-.37.34-.56.51-.05.05-.11.1-.16.15-.33.3-.67.6-1.01.88-.34.3-.69.59-1.04.88-.25.21-.51.42-.76.62-1.12.91-2.27,1.77-3.44,2.61-.29.21-.58.42-.87.62-.37.26-.74.52-1.12.77-.28.19-.56.37-.84.56-.12.08-.23.15-.34.22-.28.19-.57.37-.85.54-2.06,1.3-4.17,2.51-6.33,3.62-.36.19-.72.37-1.08.56-.36.18-.72.36-1.09.54-.37.18-.73.36-1.1.53-.37.17-.73.34-1.11.51-1.11.51-2.22.99-3.35,1.46-.47.19-.94.38-1.42.57-.39.16-.78.31-1.18.46-.43.17-.86.33-1.29.48-.47.18-.94.34-1.41.51-.13.04-.26.09-.39.14-.26.09-.52.18-.78.27-.31.11-.61.21-.91.31-.17.06-.34.12-.52.18-.01,0-.02,0-.03.01-.38.12-.76.24-1.14.36-.44.14-.87.27-1.31.41-.91.29-.58,1.68.35,1.56,1.07-.17,2.12-.38,3.17-.61.31-.07.61-.13.91-.2.31-.07.61-.14.91-.22.3-.07.6-.15.9-.23s.6-.16.9-.24c.35.39.69.78,1.03,1.18,2.36,2.82,4.39,6.04,6.12,9.38,1.9,3.71,3.48,7.52,4.76,11.41.68.18,1.36.36,2.04.54.51.13,1.02.27,1.52.42-2.6-8.63-6.53-16.8-12.3-23.79-.02-.02-.04-.05-.06-.07.6-.19,1.21-.4,1.8-.62,10.65-3.78,20.45-10.12,28.42-18.06,2.87,1.57,6.9,2.11,8.53-1.24,1.05-2.09.69-3.72-.33-5.07,3.46.23,6.99-.47,10.23-1.72,1.87-.78,3.89-1.78,5.17-3.44,0,0,0-.01,0-.02h0c.22.02.42.05.64.05,2.21,0,4.49-.67,6.51-1.94.36-.22.7-.46,1.03-.72,4.7-3.67,6.63-10.67,4.3-16.19-.66-1.55-1.64-2.94-2.84-4.12-.44-.43-.92-.84-1.42-1.22-.59-.45-1.22-.84-1.86-1.2.56-.21,1.11-.42,1.64-.63.1-.04.19-.08.29-.12,5.41-2.23,9.52-5.09,12.5-8.75,1.67-2.05,2.98-4.35,3.95-6.93.96-2.53,1.31-4.75,1.03-6.79ZM272.21,127.23c-2.77-3.7-5.6-7.68-5.8-12.24.06-2.14,1.84-2.69,3.04-1.34.07.08.14.17.22.27.07.1.13.2.19.31.13.27.26.55.39.82.4.82.81,1.64,1.23,2.45h0c.07.31.19.54.37.7,3.11,5.81,7.02,11.27,12.05,15.59,1.41,1.22,2.96,2.35,4.5,3.44.13.09.26.18.39.27.18.13.36.26.53.38.62.43,1.23.87,1.83,1.31.32.27.69.51,1.04.74.17.11.34.23.51.34.06.04.11.08.16.12.35.26.66.53.86.86.02.04.04.07.07.11.02.03.03.06.04.09.02.05.04.1.07.16.02.05.03.11.04.16.03.16.04.32.03.49-.02.13-.04.26-.08.38-.03.12-.07.23-.12.33-.18.43-.47.74-.86.89-.29.12-.63.16-1.04.1-.12-.02-.26-.04-.39-.08-.1-.02-.2-.04-.29-.07-.3-.08-.59-.18-.88-.3-.39-.16-.77-.35-1.13-.57-.15-.09-.3-.18-.44-.28-.14-.08-.28-.18-.42-.28-.14-.09-.29-.2-.43-.31-.74-.54-1.46-1.15-2.16-1.72-.08-.07-.16-.13-.23-.19h0c-.28-.23-.56-.45-.84-.66-4.5-3.69-8.84-7.76-12.46-12.28ZM290.95,135.51c-.1-.07-.2-.14-.3-.21-.04-.03-.07-.05-.11-.07-.41-.28-.81-.56-1.22-.84-.21-.14-.41-.28-.61-.43-.26-.18-.52-.36-.77-.55-.17-.12-.33-.24-.49-.36-.18-.13-.36-.27-.54-.41-.18-.13-.36-.27-.53-.41-.24-.19-.47-.38-.69-.57-4.44-3.71-8.03-8.44-10.8-13.53-.34-.57-.61-1.15-.88-1.74-.27-1.65-.37-3.32-.27-4.97.04-.72.12-1.43.23-2.14.07-.41.14-.82.24-1.22,1.96-8.52,9.38-16.24,18.07-17.65.59-.06.99-.36,1.23-.73,1.94-1.19,3.35-3.11,4.45-4.83.25-.39.49-.78.71-1.14.25-.41.5-.82.74-1.23,1.71-2.89,3.25-5.89,4.6-8.94l.31-.69c.38-.89.76-1.74,1.18-2.56.21-.41.42-.79.66-1.17.12-.19.24-.38.37-.56.13-.18.26-.36.39-.53.6-.74,1.29-1.34,2.01-1.74.8-.46,1.63-.67,2.43-.62.59.03,1.17.22,1.72.53.64.36,1.22.87,1.71,1.52.13.17.25.35.36.54.2.33.38.68.53,1.07.02.05.04.11.06.16.13.34.24.69.34,1.07.03.13.07.27.09.4.06.3.12.61.16.94.07.51.11,1.05.13,1.62.08,1.99-.11,3.95-.56,5.89-.11.47-.23.94-.38,1.4-.42,1.39-.99,2.78-1.7,4.14-.35.68-.74,1.36-1.17,2.03-.28.45-.58.89-.89,1.34-.62.89-1.32,1.77-2.07,2.65-.37.44-.77.87-1.17,1.31-1.22,1.3-2.58,2.59-4.07,3.85-.13.11-.22.24-.3.37-.61-.57-1.28-1.02-1.98-1.39-5.17-2.67-12.5-.21-15.89,4.29-.41.51.33,1.23.83.79,3.43-2.64,7.9-4.15,12.12-3.5,1.25.26,2.24.8,3.04,1.55h0c2.04,1.91,2.78,5.13,3.19,8.18l1.28,9.24c.41,2.73.84,5.72-.81,7.93-.15.21-.31.38-.49.54-.18.16-.37.3-.57.42-.2.12-.41.22-.63.3-1.56.57-3.52.22-4.92-.68-.22-.14-.44-.28-.64-.45-1.91-1.46-3.22-3.84-4.3-6.32-.15-.34-.3-.69-.45-1.04-.29-.69-.57-1.39-.83-2.1-.53-1.41-1.03-2.84-1.49-4.3-.12-.36-.23-.73-.34-1.09-.02-.04-.03-.09-.05-.13-.04-.08-.09-.15-.15-.21-.46-.44-1.37-.16-1.32.6.57,6.2,2.76,13.6,8.13,17.36,1.62,1.02,3.31,1.46,4.89,1.41.06.18.13.37.2.54,0,.02.01.03.02.04.06.15.13.3.2.44.2.42.43.83.71,1.21.04.07.09.14.14.21t.01,0s0,.01,0,.01c.02.03.04.06.06.08.04.06.09.12.14.18.09.12.19.24.3.36,0,0,.01.02.02.03.13.15.27.29.41.43.14.14.29.28.44.41h0s0,.01.01.01c.17.15.33.29.51.42.18.14.36.27.55.39.18.12.36.23.55.34.02,0,.03.02.05.03.13.07.27.14.42.21.06.03.11.06.17.09-4.6,3.28-11.54,4.32-16.73,2.17ZM318.69,113.12c.1.09.19.18.29.28.22.22.43.44.63.68.08.09.16.19.24.3.08.11.17.21.24.32.05.07.1.14.16.22.07.1.13.2.19.31.21.32.39.66.56,1h0c.06.14.12.27.18.41.05.13.11.26.15.38.05.13.09.26.13.39.04.13.08.26.12.39.04.13.07.27.11.4.04.18.08.36.11.54,0,.04.02.08.02.12.02.13.04.26.06.39.01.1.02.19.03.29.02.16.03.32.04.48.01.19.02.38.02.57,0,2.98-1.22,5.98-3.34,8.04-.32.32-.67.61-1.03.88-.02.02-.05.04-.07.06-.07.04-.13.09-.2.13-.03.02-.06.04-.08.06-.08.06-.15.1-.23.15-.38.24-.78.46-1.19.64-.51.23-1.03.41-1.56.55-.11.03-.21.05-.32.08-.21.05-.42.08-.63.12-1.12.17-2.23.12-3.25-.16-.27-.07-.53-.16-.79-.27-.09-.03-.18-.08-.27-.12-.06-.03-.12-.06-.18-.09-.09-.05-.19-.1-.29-.16-.29-.16-.57-.34-.82-.54-.12-.09-.23-.18-.34-.28-.12-.11-.23-.21-.33-.32-.11-.1-.2-.2-.29-.3-.08-.09-.15-.17-.22-.26-.07-.08-.13-.17-.19-.26-.06-.07-.11-.15-.16-.22-.06-.09-.11-.18-.16-.27-.15-.26-.28-.53-.38-.8,2.45-1.14,4.22-3.64,4.31-7.07.13-2.33-.52-6.36-1.11-9.8.18-.04.37-.08.56-.11.09-.02.18-.03.27-.04.07-.01.15-.02.22-.03.04,0,.09-.01.13-.02.17-.02.34-.03.51-.04.18-.01.37-.02.56-.02.48,0,.97.03,1.45.1.11.02.21.03.32.05.21.03.4.07.6.12.16.03.31.07.46.12.22.06.44.12.66.19.12.04.23.08.35.13.11.04.22.08.33.13.11.04.22.09.33.14.18.08.35.17.53.26.14.07.29.15.43.23.3.17.6.35.88.55.03.02.05.04.08.05.29.2.57.41.84.64.12.1.24.21.36.31ZM333.42,91.47c-1.16,3.03-2.84,5.65-5.14,7.9-.18.17-.36.34-.54.52-.74.67-1.53,1.32-2.38,1.92-.21.15-.43.3-.65.45-.44.3-.89.58-1.36.86h0c-.47.28-.95.56-1.45.82-2.25,1.18-4.81,2.21-7.7,3.1-.25.08-.46.22-.62.39-.42-.08-.83-.14-1.24-.18h0c-.22-.02-.44-.04-.67-.05-1.1-.06-2.2.02-3.28.26h0c-.03-.27-.07-.52-.11-.76-.03-.24-.07-.47-.09-.68-.36-2.41-.91-4.95-2.14-7.13h0c.17-.08.36-.16.54-.25,1.3-.66,2.86-1.89,4.7-3.39.13-.11.27-.22.39-.32.08-.06.15-.12.22-.18.13-.1.25-.2.37-.29.08-.06.15-.12.22-.18.21-.17.4-.31.56-.43,3.09-2.18,6.09-4.62,8.92-7.25l.52-.48c1.42-1.33,2.76-2.59,4.33-3.43.39-.21.79-.38,1.19-.51.09-.03.18-.06.28-.08.07-.02.14-.04.21-.06.21-.06.42-.09.62-.12.04,0,.07-.01.11-.02.33-.04.66-.06.97-.04.34.01.66.06.97.16.08.02.16.04.23.07.02,0,.04.01.06.02.06.02.11.04.16.07.08.02.14.06.22.1h0c1.29.63,2.23,2.12,2.47,3.87.21,1.53-.08,3.28-.86,5.35ZM213.32,148.94c.29-.17.57-.34.85-.52.7-.44,1.36-.89,1.96-1.36.24-.19.47-.38.69-.57,1.91-1.62,3.15-3.39,3.19-5.25.09-1.11-.32-2.13-1.02-2.86-.04-.05-.09-.09-.14-.14-.01-.02-.02-.03-.04-.04-.03-.03-.07-.06-.1-.09h0l-1.52,1.31s.07.03.1.06c.48.29.75.96.7,1.67-.35,2.84-4.09,5.05-7.54,6.69-.32.15-.63.29-.93.43-.46.21-.9.41-1.33.6-.71.32-1.36.61-1.9.87-1.22.51-2.46.97-3.7,1.4-.41.14-.83.29-1.24.42-.84.27-1.68.53-2.52.77-4.22,1.22-8.54,2.07-12.91,2.64-.57.01-1.08.34-1.31.87t-.01,0c-.03.07-.07.14-.09.22-1.33,5.06-1.34,12.81-.53,21.35.69,0,1.39,0,2.09,0h.86c-.75-7.8-.81-14.9.24-19.69.81-.14,1.63-.28,2.44-.44,2.44-.46,4.87-.99,7.28-1.66,1.46-.43,3.63-1.11,6.06-1.99.46-.17.92-.34,1.39-.52.16-.06.31-.12.47-.18.32-.12.63-.25.96-.38.32-.13.64-.26.97-.39.32-.13.64-.27.97-.41.48-.21.97-.43,1.45-.65,1.12-.52,2.23-1.07,3.27-1.66.3-.17.6-.34.89-.51ZM178.87,157.52s.01-.05.01-.07c.2-.48.13-1.07-.19-1.48-.02-.02-.03-.04-.05-.06-.03-.03-.06-.07-.09-.09-.1-.09-.21-.17-.34-.22-.08-.04-.18-.07-.28-.09-.12-.03-.24-.04-.38-.03-2.76.16-5.52.29-8.27.37-1.77-.03-5.52.13-9.13-.13-.3-.02-.59-.04-.89-.07-.07,0-.14-.01-.21-.02-.28-.03-.56-.06-.84-.09-.47-.06-.92-.13-1.36-.21-.11-.02-.22-.04-.33-.06-.17-.03-.33-.06-.49-.1-.48-.11-.95-.23-1.38-.37-.18-.06-.36-.12-.53-.19-.23-.09-.46-.18-.67-.28h0c-.19-.1-.38-.2-.55-.31-.09-.05-.17-.1-.25-.16-.26-.18-.49-.38-.68-.59-.29-.34-.49-.72-.59-1.14-.01-.08-.02-.18-.02-.27l-2-.13c-.03.6.07,1.21.29,1.77.19.49.48.94.83,1.31h0c1.22,1.19,2.68,1.88,4.25,2.32.63.18,1.28.32,1.93.43,1.43.25,2.89.38,4.27.56,3.87.31,7.75.34,11.63.28,1.04-.02,2.07-.04,3.11-.07-.21,1.1-.37,2.31-.48,3.61-.05.56-.09,1.13-.12,1.73-.02.39-.04.79-.06,1.19-.13,3.77.05,8.11.44,12.71.98-.03,1.96-.06,2.94-.08-.71-8.19-.72-15.48.47-19.96ZM142.55,161.06h0c-.07-.06-.14-.1-.23-.13-.28-.12-.62-.11-.89.11-.02.02-.05.04-.08.07s-.05.05-.07.08c-.49.61-.95,1.23-1.38,1.88-.16.23-.31.46-.45.69-.21.32-.41.66-.61.99-.13.22-.26.45-.37.68-.06.09-.11.19-.16.29-.12.22-.23.44-.34.66-.05.09-.09.18-.14.28-.13.27-.27.54-.39.82-.14.31-.28.62-.42.93,0,.01,0,.02-.01.03-.11.24-.21.48-.31.72-.86-.52-1.74-.99-2.64-1.42-1.21-.57-2.45-1.07-3.72-1.48-1.59-.52-3.22-.9-4.88-1.14-1.35-.19-2.72-.29-4.09-.29-.18,0-.36,0-.53,0-.33,0-.67.01-1.01.02-.17,0-.33,0-.5.01-.17,0-.33.01-.5.02-.08,0-.17,0-.25.01-.18,0-.36.02-.53.03-1.59.09-3.2.24-4.78.56-.81.16-1.61.37-2.39.63-.75.25-1.48.55-2.18.92-.12.06-.24.12-.36.19-.14.07-.28.16-.42.24-.09.05-.19.11-.28.17-.14.09-.28.18-.41.27-.26.17-.5.36-.74.56-.15.12-.29.24-.43.36-.3.26-.59.54-.87.85-.02.01-.03.02-.03.03-.08.08-.16.17-.23.25-.03.03-.06.07-.09.11-.11-.01-.23-.02-.33-.02h0c-.61-.06-1.21-.11-1.81-.14-.12-.01-.23-.02-.34-.03-.13-.01-.26-.02-.38-.03-.28-.02-.56-.04-.83-.06-.87-.06-1.74-.12-2.61-.19-.68-.05-1.37-.11-2.04-.16-.82-.07-1.62-.15-2.42-.23-.39-.04-.79-.09-1.18-.14-.75-.09-1.5-.19-2.24-.31-.41-.06-.81-.13-1.21-.21-.27-.05-.53-.1-.8-.15-.41-.08-.81-.16-1.21-.25-.13-.03-.27-.06-.39-.09-.2-.04-.4-.09-.6-.14-.36-.09-.72-.18-1.08-.28-.24-.07-.47-.13-.71-.21-.2-.06-.4-.12-.59-.18-.18-.06-.37-.12-.55-.17-.38-.13-.76-.26-1.13-.4-.23-.08-.46-.17-.69-.26-2.83-1.22-5.85-2.63-8.58-4.21,2.2-5.03,5.72-9.37,10.05-12.77,3.53-2.75,7.45-5.05,11.62-6.88,1.13-.51,2.29-.97,3.46-1.4h0c.39-.14.78-.28,1.18-.42,2.36-.82,4.78-1.49,7.23-2.02.41-.09.82-.18,1.23-.26,5-.98,10.13-1.38,15.18-1.16,1.37.06,2.73.17,4.08.32h0c1.36.16,2.7.35,4.03.59h0s.43-2.36.43-2.36c-.38-.1-.76-.21-1.14-.29-19.2-4.31-43.74,2.31-55.91,18.37-1.54,2.13-2.8,4.45-3.8,6.87-2.46-1.18-5.69.07-6.32,2.94-.36,1.48.03,2.86.76,4.05-1.62.38-3.33.46-5.04.29-1.42-.14-2.92-.36-4.33-.72-2.54-.81-4.83-2.62-7.75-2.48-4.03.23-7.52,4.09-6.5,8.19.17.52.42.98.69,1.4-.66-.01-1.34,0-2.07.13-7.96,1.87-9.82,11.65-1.86,15.06,1.03.49,2.11.79,3.19.98-2.99,3.13-3.7,8.96.12,11.74,4.97,3.32,11.68,3.36,18.29,2.02,6.05-1.23,12.04-3.61,16.55-5.7,3.17-1.91,7.23-1.24,10.19.81.16.11.32.23.47.34,2.16,1.57,4.22,3.3,6.51,4.73,1.52.94,3.13,1.74,4.92,2.26,4.88,1.76,11.75-.04,14.23-4.71.56-1.06.9-2.27.93-3.62.13-2.53-1.28-4.32-3.12-5.54-1.02-.67-2.17-1.17-3.28-1.51-2.28-.74-4.05-1.75-5.29-3.07-1.9-2.03-2.53-4.79-1.83-8.47.01-.06.03-.13.04-.19.02-.08.03-.17.03-.24,1.31.05,2.59,0,3.76-.26,1.79-.39,3.32-1.27,4.29-2.99.32-.63.43-1.27.39-1.89-.06-1.06-.57-2.1-1.32-2.88.54-.52,1.14-.97,1.79-1.34,1.23-.72,2.62-1.2,4.08-1.53l.08-.02c2.56-.54,5.32-.61,8.08-.68,3.37-.06,6.64.66,9.83,1.73,1.21.41,2.4.87,3.57,1.36l1.02.43c-.61,1.65-1.14,3.33-1.62,5-.48,1.72-.91,3.46-1.28,5.22,1.13-.18,2.26-.36,3.39-.53.06-.24.11-.49.16-.74.09-.42.19-.84.29-1.26.13-.54.27-1.08.41-1.62.13-.51.27-1.02.42-1.53.02-.04.03-.08.04-.13.15-.52.3-1.03.46-1.55.16-.53.33-1.06.51-1.59.16-.47.31-.94.48-1.42.02-.06.04-.11.06-.16.09-.26.18-.52.28-.78.36-.99.74-1.98,1.13-2.96.12-.3.24-.6.37-.9.03-.09.07-.17.11-.26.28-.66.57-1.32.86-1.97.31-.69.63-1.37.96-2.05.23-.46.06-.88-.26-1.13ZM99.45,189.5c.12.16.24.32.37.47,0,0,0,.02.02.02.06.08.13.16.2.23.11.12.22.24.34.37.07.07.14.13.21.2.03.03.06.06.09.08.06.06.12.12.19.17.09.08.18.15.27.22.06.05.12.09.18.14.12.09.24.18.37.26.15.11.3.2.46.29.14.1.29.19.45.29.61.37,1.27.68,1.93.97.84.36,1.7.68,2.53,1.02.98.41,1.91.86,2.67,1.45h0c.06.05.11.1.16.16.05.06.1.11.14.16.03.03.06.07.09.11.14.18.27.36.37.54h0c.05.09.1.19.14.28.01.02.02.03.03.06.03.07.06.14.09.22.07.2.12.4.15.61.02.08.03.16.03.24.22,2.31-1.72,4.8-4.12,5.74-.61.28-1.25.48-1.91.62-.16.03-.33.06-.49.09-.17.03-.33.04-.5.06-.39.04-.78.06-1.18.05-.15,0-.3,0-.45-.01-.13-.01-.26-.02-.39-.03-.57-.05-1.14-.14-1.71-.28-.28-.07-.56-.14-.84-.23-.22-.07-.44-.14-.65-.22-.22-.08-.43-.16-.63-.25-.17-.07-.34-.14-.51-.22-.66-.29-1.28-.63-1.9-1-.22-.13-.43-.26-.64-.4-.45-.28-.89-.58-1.33-.89-.83-.59-1.64-1.22-2.45-1.83-.03-.02-.05-.04-.08-.06,0,0-.01,0-.02-.01-.25-.19-.5-.38-.75-.57-.49-.37-.99-.73-1.49-1.08-.2-.14-.4-.28-.61-.41-.17-.11-.33-.22-.5-.33-.03-.02-.06-.03-.09-.05-.01-.01-.02-.02-.03-.02-.22-.14-.44-.27-.66-.39-.15-.09-.3-.17-.45-.26-.01,0-.02-.01-.03-.02-.18-.1-.37-.19-.55-.28-.12-.07-.25-.12-.38-.18-.15-.08-.31-.14-.46-.21-.17-.08-.35-.14-.53-.21-.07-.03-.14-.06-.21-.07-.16-.06-.31-.11-.47-.16-.18-.06-.36-.11-.55-.16-.11-.03-.21-.06-.32-.08-.06-.02-.12-.03-.17-.04-.07-.01-.14-.03-.21-.04-.03-.01-.06-.01-.09-.02-.02,0-.03,0-.04,0,0,0-.01,0-.02,0-.17-.03-.34-.06-.52-.08-.95-.12-1.96-.12-3.02.03-.27.04-.53.08-.8.14-.32.07-.63.14-.96.24-.75.22-1.52.63-2.18.94-1.82.84-3.68,1.65-5.57,2.38-.47.19-.94.37-1.42.54h0c-.72.27-1.44.52-2.17.75-4.9,1.61-9.98,2.61-15.09,2.47-.59-.06-1.26-.13-1.94-.22-.17-.02-.35-.04-.53-.08-.18-.03-.36-.06-.54-.09-.14-.03-.28-.05-.42-.08-.4-.08-.8-.17-1.18-.29-.09-.03-.18-.06-.27-.08-.48-.15-.95-.33-1.38-.56-.09-.04-.17-.08-.25-.13-.08-.04-.17-.09-.24-.14-.32-.19-.61-.42-.87-.67-.07-.06-.13-.13-.19-.19-.06-.06-.11-.12-.16-.19-.07-.08-.12-.16-.18-.24-.05-.07-.1-.14-.14-.22-.06-.09-.11-.19-.16-.29-.01-.02-.02-.03-.03-.06-.04-.1-.09-.21-.12-.32,0,0,0-.01,0-.02-.03-.09-.06-.18-.08-.28-.04-.16-.08-.32-.11-.48-.02-.54.04-1.16.18-1.77.02-.12.06-.23.09-.35.14-.51.34-1.01.6-1.47.04-.08.08-.15.13-.22.19-.31.42-.6.68-.84.05-.05.09-.09.14-.13h0c.1-.09.2-.17.31-.24.11-.08.22-.14.34-.21.17-.09.36-.17.56-.23,1.2-.41,2.53-.48,3.9-.48,1.02,0,2.06.04,3.07.02.25,0,.49-.02.74-.03h.03c.16-.02.32-.03.48-.04.56-.04,1.13-.09,1.69-.16,1.98-.25,3.97-.71,5.82-1.47.27-.11.52-.23.78-.34.26-.12.51-.25.76-.38.5-.27.98-.57,1.45-.89.7-.49,1.36-1.04,1.97-1.67.14-.13.19-.31.17-.48h0c-1.31.24-2.61.44-3.93.61-.24.08-.49.16-.73.23-.24.07-.49.14-.73.21-.26.08-.51.14-.76.21-.24.06-.47.12-.71.18-.21.06-.42.11-.64.16-.19.04-.38.09-.57.12-.27.06-.55.12-.82.17-.23.05-.46.09-.68.13-.04,0-.08.01-.12.02-.28.05-.56.09-.83.13-.09.02-.18.03-.27.04-.14.02-.29.04-.43.06-.17.02-.33.04-.51.06-.17.02-.34.03-.52.05-.31.03-.61.06-.92.07-2.66-.1-5.78-.03-8.35.02-.43,0-.87-.03-1.33-.1-.12-.02-.23-.03-.34-.06-.05,0-.1-.02-.15-.03-.09-.02-.19-.03-.28-.06-.12-.02-.24-.05-.36-.08-.12-.03-.24-.06-.36-.09-.12-.03-.24-.07-.36-.11-.13-.04-.26-.08-.39-.13l-.32-.12c-.24-.09-.47-.19-.7-.29-.11-.05-.22-.1-.33-.16-.11-.05-.22-.11-.33-.17-.21-.11-.42-.24-.62-.37-.31-.19-.59-.41-.86-.64-.09-.07-.17-.15-.26-.23,0,0-.01,0-.02-.01-.16-.16-.31-.31-.44-.47-.22-.26-.41-.53-.56-.81-.05-.09-.1-.19-.14-.28-.06-.11-.1-.22-.13-.33-.07-.18-.12-.37-.15-.57-.02-.07-.02-.13-.03-.2-.09-.76.05-1.58.5-2.45.12-.23.27-.47.43-.72,2.18-2.83,5.43-2.98,8.84-2.02l2.72.71c.19.04.39.08.58.13.09.02.19.04.29.07.19.04.39.09.59.13.29.06.6.12.91.15.33.07.67.13,1.01.18.17.02.33.05.51.07.51.07,1.02.11,1.52.13,0,0,.01,0,.01,0,.51.03,1.02.03,1.53.02.17,0,.33-.01.49-.02h.02c.46-.02.92-.06,1.38-.11.33-.04.67-.08,1-.13.22-.03.44-.07.66-.11.46-.08.91-.18,1.36-.29h0c.7-.17,1.39-.37,2.08-.59.16-.05.32-.11.48-.16.02,0,.03-.01.04-.02.09-.04.16-.1.2-.18.02-.02.03-.04.03-.06.02-.06.03-.12.03-.17,0-.07-.02-.14-.04-.2-.88,0-1.77-.02-2.64-.07-.07,0-.13,0-.2,0-.14.01-.28.02-.42.02-1.1.04-2.19,0-3.27-.12-.97-.18-2.74-.47-4.65-.93-.17-.04-.35-.08-.52-.13,0,0,0,0,0,0-.17-.05-.35-.09-.52-.14-.18-.05-.36-.1-.53-.15s-.35-.11-.52-.16h0c-.17-.06-.34-.11-.52-.17-.26-.08-.51-.17-.76-.27-.26-.09-.51-.19-.74-.29-.16-.07-.31-.14-.46-.21,0,0,0,0,0,0-.53-.25-1.03-.52-1.46-.81h0c-.12-.09-.24-.17-.35-.26-.06-.04-.12-.09-.17-.13-.11-.09-.21-.18-.3-.27-.56-.56-.9-1.19-.91-1.9,0-.1,0-.21.02-.31h0c.01-.08.02-.16.04-.23.02-.08.04-.17.07-.25.06-.17.12-.33.21-.51.2-.45.49-.86.83-1.22.34-.36.74-.67,1.18-.9.18-.09.36-.17.53-.24.37-.14.74-.22,1.12-.24,2.23-.19,5.17,2.09,7.77,2.51,3.49.63,7.1.97,10.6-.16.12-.04.22-.09.31-.15.16.15.32.31.47.43,7.36,5.93,16.77,7.47,25.8,8.59.2.01.41.02.62.04.34.02.7.05,1.07.09.1.01.2.02.31.03.16.02.32.04.48.06.56.06,1.13.13,1.72.19.13.01.27.03.41.04.2.02.41.04.61.06-.08.16-.15.33-.21.52-.06.19-.12.38-.17.58-.03.11-.05.21-.07.31-.04.21-.08.42-.12.63-.16.94-.21,1.86-.22,2.31,0,.46.03.91.1,1.37.03.18.06.36.09.53.03.14.06.28.1.42.03.11.06.21.09.32.03.1.07.21.1.31.1.31.22.62.36.92.04.1.09.2.14.3.05.1.1.19.15.29.04.08.08.16.13.24.06.11.12.22.19.33,0,.01.01.02.02.03.09.14.18.28.27.41.08.12.16.23.25.34ZM106.2,174.62c-.01.11-.04.23-.08.34-.02.06-.04.12-.07.18-.54,1.11-2.27,1.77-4,1.78-1.74-.09-3.54-.2-5.38-.36-.45-.03-.91-.08-1.36-.12-.07,0-.14-.01-.22-.02-.14-.01-.29-.03-.43-.04-.36-.03-.72-.07-1.09-.11-1.09-.12-2.18-.26-3.28-.41-.35-.05-.7-.1-1.06-.16l-.22-.03c-.67-.11-1.34-.22-2.02-.35-.36-.07-.73-.14-1.09-.21-.37-.07-.73-.15-1.09-.23-.04,0-.09-.02-.13-.03-.68-.15-1.35-.31-2.02-.49-.37-.09-.74-.2-1.11-.31-.34-.09-.67-.19-1.01-.29-.03,0-.06-.02-.09-.03-.67-.21-1.32-.42-1.97-.66-.31-.11-.61-.22-.91-.34-.13-.04-.25-.09-.37-.14-.58-.23-1.15-.47-1.71-.73-.24-.11-.47-.22-.71-.33-.16-.07-.31-.14-.47-.23-.23-.11-.46-.23-.68-.35-.02-.01-.04-.02-.07-.04-.28-.14-.55-.29-.82-.45-.39-.22-.77-.45-1.15-.69-.24-.15-.48-.31-.72-.47-.23-.16-.47-.32-.69-.48-.33-.24-.67-.49-.99-.74-1.13-1.01-2.26-2.23-1.96-3.65.07-.26.19-.48.35-.66.05-.06.11-.11.17-.16.39-.32.95-.4,1.53-.16.13.06.27.13.41.22.22.14.44.27.67.41h0c.44.27.89.52,1.34.77.67.37,1.34.72,2.03,1.05,2.26,1.1,4.57,2.02,7,2.93.94.34,1.89.64,2.85.91.24.07.48.13.72.2.48.13.97.25,1.46.36,1.22.28,2.46.53,3.71.74.46.08.92.15,1.38.22.28.04.56.08.84.12.41.06.82.11,1.23.16.46.06.92.11,1.39.16.46.05.92.09,1.38.14,1.41.14,2.81.24,4.2.34.88.06,1.76.12,2.63.17.58.04,1.17.07,1.74.11.51.09.99.35,1.35.71.14.13.26.28.35.44.07.11.12.22.16.33.06.17.09.35.09.53,0,.06,0,.11-.01.17ZM136.29,181.09c-.21.97-.4,1.93-.57,2.9.17-.97.36-1.93.57-2.9ZM134.7,192.24c-.07,1.02-.12,2.04-.14,3.06.03-1.02.07-2.04.14-3.06ZM101.06,294.83c.15.14.31.28.46.43.14.12.28.24.42.36-.13-.12-.27-.23-.4-.34-.17-.14-.33-.29-.48-.44Z"/>
          <path class="cls-8" d="M106.03,174.45c0,.2-.06.42-.17.64-.55,1.04-2.27,1.65-4,1.66-2.23-.11-4.57-.25-6.96-.46,1.54.04,3.07-.07,4.56-.62,1.49-.53,2.49-1.63,2.8-2.83.03-.11.06-.23.07-.35.59.04,1.17.07,1.75.1,1.01.18,1.95.96,1.95,1.86Z"/>
          <path class="cls-1" d="M185.56,17.85c-.03-.13-.06-.27-.09-.4-.04-.17-.08-.33-.13-.49-.03-.11-.06-.23-.09-.34-.04-.16-.09-.31-.14-.47-.02-.06-.04-.12-.06-.18-.05-.15-.11-.31-.16-.46-.05-.14-.11-.29-.16-.44-.12-.29-.24-.59-.38-.88.11.26.21.52.3.79.08.23.16.46.24.69l.1.32c.18.57.33,1.14.47,1.73.02.08.07.15.12.21v-.02s-.01-.04-.02-.07ZM227.62,106.69c-1.24-5.05-3.5-9.43-6.52-12.81-2.27-2.54-4.97-4.53-7.99-5.83-.28-.94-.55-2.31-.81-3.82-.33-1.97-.65-4.18-.91-6.05-.31-2.14-.57-4.02-.81-5.26-1.14-8.2-1.17-14.81-.06-19.64.03-.13.03-.27.03-.39,4.53-2.2,8.34-6.07,10.57-10.57,5.92-11.35,3.63-25.49-5.01-34.03-2.36-2.33-5.18-4.24-8.45-5.57-.76-.32-1.53-.59-2.34-.83-7.79-2.43-17.45-2.08-23.64,3.84-10.64-10.03-33.56-5.91-42.14,4.72-.02.03-.04.05-.07.08-.04.06-.08.13-.12.2-7.72-2.64-17.48-1.34-23.91,3.17-4.38,2.76-7.46,6.42-9.33,10.54-3.86,8.51-2.56,18.97,3.2,27.35,1.8,2.66,3.98,5.04,6.43,7.09.03.02.05.04.08.06.17.16.35.29.53.43.08.07.17.14.26.21.09.09.2.16.3.24,4.27,3.31,9.28,5.7,14.5,7.03.03.09.07.18.1.28.64,1.78,1.22,3.71,1.74,5.88.58,2.32,1.06,4.77,1.46,7.29.1.66.2,1.32.29,1.97.31,2.3.43,4.79.42,7.63-.03,2.12-.1,4.38-.24,6.93-.08,1.48-.18,2.96-.28,4.43-4.85,5.05-7.52,11.89-7.52,19.15,0,.87.04,1.75.12,2.63.4,4.57,1.82,8.94,4.06,12.79l-.43,2.35h0c.38.08.77.15,1.14.23.39.08.77.16,1.15.24,1.78,2.39,3.9,4.5,6.32,6.18,3.04,2.12,6.43,3.82,10.17,5.1-.26.4-.43.85-.5,1.32-.02.16-.04.31-.04.47l2,.13c0-.51.21-.96.58-1.27.44.13.89.26,1.34.37.07.02.14.04.22.06.28.08.58.15.87.22.2.05.4.1.61.14.35.08.71.16,1.07.23.2.04.41.08.61.12.29.06.58.12.88.17.09.02.18.03.28.05.11.02.22.04.33.06.79.13,1.59.26,2.42.36.34.04.68.08,1.02.12.23.03.47.05.71.07.4.04.81.08,1.22.11.94.08,1.91.14,2.89.18.11,0,.21.01.32.01.44.02.89.03,1.34.04.59.01,1.18.02,1.78.02,1.91,0,3.86-.06,5.88-.18.67-.04,1.36-.09,2.04-.14h0c.1.04.21.08.32.11.11.03.22.04.34.04.06,0,.12-.01.18-.01,1.67-.17,3.3-.37,4.89-.59.44-.07.88-.13,1.31-.19.74-.11,1.47-.23,2.19-.36.38-.07.76-.13,1.14-.2s.75-.14,1.12-.21c.74-.14,1.47-.29,2.19-.45.36-.08.72-.16,1.08-.24,1.07-.24,2.11-.5,3.13-.77.34-.09.68-.18,1.02-.28,1.01-.28,1.99-.58,2.96-.89.57-.18,1.14-.37,1.7-.57.42-.14.83-.29,1.24-.44.36-.13.71-.27,1.05-.41.29-.11.58-.23.87-.34.78-.32,1.53-.64,2.27-.98.41-.18.81-.37,1.21-.57.31-.15.61-.3.91-.46.27-.13.53-.27.79-.41.74-.39,1.47-.79,2.17-1.22.08-.05.17-.11.26-.16.06-.03.12-.07.18-.11.04-.02.07-.04.11-.06.63-.38,1.23-.77,1.83-1.18.27-.17.53-.36.78-.54.09-.06.17-.12.26-.18.32-.23.63-.46.94-.69.35-.26.69-.53,1.03-.81l1.52-1.31h0c1.29-1.15,2.49-2.37,3.59-3.67.07,0,.13.01.19.02.4.04.81.08,1.22.11l.11-1.88.02-.29c.87-1.29,1.63-2.69,2.26-4.18,2.71-6.27,3.33-14.08,1.49-21.51ZM134.5,66.76c9.6-4.7,19.69-8.39,30.15-10.62,10.73-2.28,21.72-3.02,32.68-2.32.26.01.43-.1.54-.27.14-.25.09-.63-.19-.8-.06-.03-.13-.06-.21-.07-.35-.06-.7-.12-1.05-.18-1.04-.17-2.09-.32-3.14-.46,3.44-3.89,5.57-8.88,5.83-13.96.02-.19-.05-.37-.17-.5-.02-.03-.06-.07-.09-.09-.07-.06-.14-.09-.22-.12-.04-.02-.08-.02-.13-.03-.38-.06-.73.22-.79.6-.17,1.29-.47,2.56-.88,3.78-.1.31-.21.61-.33.91-.35.9-.76,1.78-1.23,2.62-.31.56-.64,1.11-1,1.63t0,0c-.72,1.06-1.52,2.05-2.41,2.96-.44.46-.91.88-1.39,1.29h0c-.05.05-.09.09-.13.14-.12.13-.21.27-.27.42-.49-.04-.99-.08-1.49-.12-.38-.03-.77-.06-1.16-.07-.76-.05-1.53-.08-2.29-.11-.66-.03-1.32-.04-1.98-.04-1.3-.02-2.59,0-3.89.04h-.09c-.96.03-1.92.08-2.88.14-.94.06-1.87.13-2.81.22-1.02.09-2.04.21-3.06.33.81-4.45-.02-9.06-2.22-12.79-.17-.28-.49-.42-.8-.35-.05.01-.1.03-.15.05-.04.02-.07.03-.1.05-.03.02-.07.04-.09.07-.03.02-.06.05-.08.08-.18.21-.24.51-.12.78,1.75,4.06,1.74,8.74.13,12.59-8.24,1.29-16.33,3.58-24.05,6.69-.11-.08-.22-.17-.33-.26-1.14-.89-2.25-1.85-3.28-2.88-2.49-2.49-4.5-5.42-5.18-8.91-.02-.1-.06-.19-.1-.28-.03-.04-.06-.08-.09-.12-.17-.21-.44-.32-.72-.29-.17.01-.32.07-.44.17-.12.09-.22.22-.28.36-.05.12-.07.26-.06.39.21,2.37,1.03,4.65,2.18,6.72.27.47.55.94.85,1.39.3.46.62.92.94,1.36.33.44.67.88,1.02,1.3.52.63,1.07,1.24,1.64,1.84.19.2.38.39.57.58h0c-1.15.51-2.29,1.03-3.42,1.57-.57.27-1.13.55-1.69.83-.56.28-1.12.57-1.67.86,0,0,0,0,0,0-.03-.01-.04-.02-.06-.02-.77-.21-1.54-.44-2.31-.71-.19-.07-.39-.13-.58-.21-.22-.08-.44-.16-.67-.24-.25-.09-.49-.19-.74-.29-.57-.23-1.13-.47-1.69-.73-.24-.11-.48-.22-.72-.34-.09-.04-.18-.09-.28-.13-.02,0-.02-.01-.03-.02-.02,0-.03-.01-.04-.02-.16-.08-.33-.16-.49-.24-.19-.1-.38-.2-.58-.31-.23-.12-.47-.25-.69-.38-.46-.26-.92-.53-1.37-.81-.23-.13-.45-.28-.67-.43-.22-.14-.44-.29-.66-.44-.66-.44-1.3-.92-1.92-1.41-.17-.13-.33-.26-.49-.4-.18-.14-.35-.28-.52-.43-.23-.19-.46-.39-.68-.59-.51-.46-1-.93-1.48-1.41-.2-.2-.39-.41-.58-.61-.23-.24-.46-.5-.68-.76-.39-.44-.76-.89-1.12-1.35-.03-.04-.07-.09-.11-.14-.02-.02-.04-.05-.06-.07-.16-.2-.31-.41-.46-.61-.09-.12-.18-.24-.26-.37-.02-.02-.03-.04-.05-.07-.15-.22-.29-.43-.44-.65-1.21-1.78-2.17-3.61-2.91-5.44-.49-1.23-.88-2.46-1.17-3.69-1.88-8.03.44-15.94,6.08-21.25.37-.35.76-.69,1.16-1.02.27-.22.54-.43.82-.64.14-.11.28-.21.43-.31.28-.21.58-.4.87-.59.75-.48,1.53-.92,2.36-1.31,2.62-1.28,5.63-2.14,8.97-2.48,1.38-.11,2.76-.11,4.13.02.47.04.94.09,1.41.17.28.04.56.09.83.14.19.03.39.07.58.12.23.04.47.1.69.16.23.05.46.11.69.18.23.06.45.13.68.2.22.07.45.14.67.22.21.07.42.15.63.23.66.25,1.29.53,1.91.84.03.02.06.03.09.05.19.09.39.2.58.31.22.12.43.24.64.37.19.12.38.23.57.36.26.17.52.34.77.53.13.09.26.18.38.28.19.14.37.28.55.43.08.06.16.13.24.19h0c.05.05.1.09.15.14.11.09.22.19.33.29.1.08.19.17.28.26.18.16.36.33.52.51.21.21.41.43.6.65.17.19.33.38.49.58.06.07.12.15.18.23.15.19.29.39.44.59.17.24.34.49.51.75.17.26.32.51.47.78.14.24.27.49.4.74.02.02.03.05.04.07,0,0,0,0,0,.01.06.13.13.26.19.38,0,.02.02.04.03.06,0,0,0,0,0,.01.03.05.07.09.11.13.04.04.08.07.13.09.04.02.08.04.12.05.02,0,.03,0,.04.01.04,0,.08.01.12.01.36,0,.73-.3.65-.76-.04-.21-.09-.42-.14-.62-.03-.14-.06-.27-.1-.41-.01-.06-.03-.11-.04-.16-.06-.22-.12-.44-.19-.66-.11-.33-.22-.66-.34-.97-.06-.15-.12-.29-.18-.44-.04-.11-.09-.22-.14-.33-.11-.24-.22-.48-.34-.72-.06-.13-.13-.26-.2-.38-.47-.87-1.02-1.66-1.62-2.4-.03-.04-.07-.08-.11-.12-.11-.13-.21-.26-.32-.38-.08-.1-.17-.19-.27-.29-.09-.11-.19-.2-.28-.3-.56-.56-1.16-1.08-1.78-1.56-.21-.16-.42-.31-.63-.45-.19-.14-.39-.27-.6-.39-.03-.02-.05-.04-.08-.05-.21-.13-.42-.26-.63-.38-.01,0-.03-.02-.04-.02-.13-.08-.27-.16-.41-.23,0-.01.01-.02.02-.02.17-.18.33-.36.51-.53.36-.37.73-.71,1.13-1.05.97-.84,2.03-1.6,3.16-2.28.66-.41,1.35-.79,2.06-1.14.95-.48,1.93-.91,2.93-1.3.25-.09.49-.19.74-.28.48-.17.97-.33,1.46-.49.99-.31,2.03-.58,3.08-.82.74-.17,1.5-.32,2.27-.44.88-.14,1.78-.26,2.67-.34.51-.05,1.02-.08,1.53-.11.74-.04,1.48-.06,2.21-.04.13,0,.27,0,.41.01.13,0,.26,0,.38.01.2,0,.39.02.59.03.66.04,1.32.1,1.96.19.21.03.42.06.63.09.33.05.66.11.98.17.16.03.32.07.48.1.32.07.64.14.95.23l.37.1c.69.19,1.38.42,2.04.69.16.06.31.12.46.19.54.23,1.08.49,1.59.78.13.07.27.14.39.22.01,0,.03.02.04.03.13.07.26.15.38.23.59.37,1.16.77,1.69,1.22.08.06.16.13.23.19.12.1.24.21.36.32h0c.14.13.28.26.42.4.11.11.22.22.33.34.14.15.29.31.42.46.08.08.15.17.22.26.11.12.21.25.31.38.06.08.13.16.19.24.08.09.15.2.22.3.1.14.2.28.29.42.15.22.29.44.43.67.25.42.48.84.69,1.29.06.12.12.24.17.37.07.14.13.28.19.43.08.17.15.34.22.52h0s.02.06.03.08c.11.26.21.52.3.79.08.23.16.46.24.69l.1.32c.18.57.33,1.14.47,1.73.02.08.07.15.12.21h0s0,.01,0,.01c.02.02.04.04.07.06.02.02.05.04.08.05.02.01.04.02.06.03.04.02.08.03.13.03.01,0,.03,0,.04,0,.06,0,.11-.01.16-.03.06-.02.1-.04.14-.07.02-.02.04-.04.07-.07.02-.02.04-.04.05-.06.03-.05.06-.1.07-.16,0-.03.01-.06.01-.09.01-.17.02-.35.03-.52.01-.31.01-.61,0-.92,0-.13,0-.26-.02-.39-.04-.94-.18-1.9-.41-2.84-.05-.19-.1-.39-.16-.59-.01-.04-.02-.08-.03-.12-.06-.2-.12-.4-.19-.6-.06-.18-.13-.36-.19-.53-.02-.06-.04-.12-.07-.17-.08-.19-.16-.39-.25-.58-.1-.2-.2-.39-.31-.58-.22-.38-.44-.74-.68-1.09-.12-.18-.24-.35-.37-.52h0s.05-.04.07-.06c.02,0,.03-.01.04-.02.4-.34.81-.66,1.24-.96.43-.29.87-.56,1.33-.81.23-.12.46-.24.7-.35.47-.22.95-.42,1.44-.59,4.85-1.73,10.68-1.34,15.47.17.32.09.63.19.94.31.06.02.11.03.16.06.19.07.38.14.57.21.16.06.31.12.47.18.03.01.06.03.09.04.21.09.42.18.63.28.22.1.43.2.65.3.23.11.45.22.68.35.22.12.43.23.64.36.21.12.42.24.62.37.16.1.32.2.48.31.07.04.14.09.21.13.17.12.35.24.52.36.39.28.77.57,1.14.87.18.15.37.31.54.46.18.16.36.31.53.47.01.01.03.02.04.04.17.14.33.3.48.46.17.17.34.34.5.51.12.12.23.24.34.36.09.11.19.21.28.32.11.12.22.25.33.38.15.18.3.36.44.55.08.1.16.21.24.31.07.08.13.17.19.25.04.05.08.1.11.16.09.12.18.25.27.38.11.13.2.28.29.42.17.26.34.52.51.79.18.3.36.6.53.91s.34.62.49.93h0c.16.32.31.63.46.95.14.31.28.62.41.93.03.06.05.12.07.18.11.26.21.51.3.77.04.11.08.22.12.34,0,0,0,0,0,0,.08.22.16.44.23.66.02.06.04.12.06.19.08.27.17.54.24.81.02.06.03.12.05.18.09.31.17.62.24.93.07.28.13.55.18.83.03.12.05.23.07.35.06.27.1.53.14.81.02.06.02.12.03.18.04.25.07.5.1.76.02.11.03.23.04.34.02.18.04.37.06.56.02.17.03.34.04.51.02.32.04.64.06.96.02.36.02.72.02,1.07,0,3.86-.81,7.74-2.5,11.31-.17.39-.36.78-.55,1.15-.1.19-.2.38-.31.56-.1.18-.21.37-.32.55-.11.18-.22.36-.33.53-.11.17-.21.33-.32.48-.02.02-.03.04-.04.07-.12.17-.23.33-.35.48-.12.17-.25.34-.38.5-.12.16-.24.31-.37.47-.02.02-.04.05-.06.07-.12.14-.24.28-.36.42-.14.16-.28.31-.42.46-.14.15-.28.3-.43.44-.79.8-1.66,1.53-2.57,2.19-.18.13-.37.27-.56.39-.19.13-.38.26-.57.37-.16.11-.32.21-.49.3-.99.59-2.02,1.11-3.1,1.53h0c-.37.16-.75.29-1.13.42-.17.06-.33.11-.5.16-.16.05-.32.1-.48.14-.14.04-.28.08-.42.11-.14.04-.28.08-.43.11-.21.05-.41.1-.61.14h-.01s-.02,0-.03,0c-.27.06-.53.11-.81.16-.03,0-.07.01-.1.02-.29.05-.59.09-.88.13-.14.02-.27.08-.37.17-.03.03-.06.06-.09.09-.08.09-.12.21-.13.32-.03.17,0,.35.08.5.04.07.1.14.17.2.1.09.24.14.41.15.21.01.43.01.64.01.15,0,.29,0,.44,0,.14,0,.29-.01.43-.02.36-.02.72-.04,1.07-.08.18-.02.36-.04.53-.07.15-.02.29-.04.44-.07.33-.05.65-.11.97-.18.2-.04.39-.09.59-.14.2-.05.4-.1.6-.16h0c-.31,1.71-.49,3.56-.57,5.57-.14,3.79.12,8.15.79,13.16,0,.08.01.14.02.22-.31-.08-.62-.16-.92-.24-.26-.07-.52-.13-.78-.19-.67-.17-1.34-.32-2.02-.46-.33-.07-.66-.14-.99-.2-.26-.05-.52-.1-.78-.15-1.41-.26-2.83-.48-4.26-.67-.34-.04-.68-.08-1.02-.12-.34-.04-.68-.08-1.03-.11-.44-.04-.89-.09-1.34-.13-.24-.02-.48-.04-.72-.06-.37-.03-.74-.06-1.11-.08-1.37-.08-2.74-.13-4.13-.15-5.69-.07-11.51.43-17.35,1.5-1.02.19-2.04.39-3.06.62h0c-.68.15-1.36.31-2.04.47-2.73.66-5.48,1.44-8.23,2.34-1.72.57-3.44,1.18-5.17,1.84-1.03.39-2.07.81-3.11,1.24-1.03.43-2.07.87-3.11,1.34-.69.31-1.38.62-2.07.95-1.04.48-2.07.98-3.11,1.51-.69.34-1.38.7-2.07,1.06-.34.18-.69.36-1.03.54-.03-.34-.07-.68-.1-1.03-.03-.23-.05-.46-.08-.68-.02-.11-.03-.22-.04-.32-.04-.34-.09-.68-.14-1.02-.05-.34-.1-.68-.16-1.01-.3-1.96-.66-3.88-1.07-5.73-.13-.62-.28-1.23-.43-1.83-.19-.76-.38-1.49-.58-2.2-.33-1.18-.68-2.29-1.04-3.36ZM219.85,132.27c-1.27,1.49-2.68,2.88-4.22,4.18-.93.78-1.9,1.53-2.92,2.24-1.37.95-2.82,1.84-4.37,2.67-3.08,1.66-6.53,3.08-10.35,4.28-.48.15-.96.29-1.45.44-.98.28-1.98.56-3.01.81-2.82.7-5.81,1.29-8.99,1.78-2.03.32-4.13.58-6.31.81-.18.02-.36.08-.51.16-2.76.23-5.4.34-7.94.34-.53,0-1.05,0-1.57-.02-.09,0-.18,0-.27,0-.48-.01-.95-.02-1.42-.04-.1,0-.19,0-.29-.02-.42-.01-.83-.04-1.24-.07-.19,0-.38-.02-.56-.03-.44-.03-.87-.07-1.31-.11-.54-.05-1.08-.11-1.62-.17-.51-.06-1.02-.13-1.52-.2-.04,0-.08,0-.11-.01-1.01-.14-1.99-.32-2.96-.51-.03,0-.06-.01-.08-.02-3.48-.7-6.66-1.71-9.58-3.03-.42-.19-.83-.39-1.24-.59-.81-.41-1.61-.83-2.37-1.29-.77-.46-1.52-.94-2.24-1.44-1.16-.81-2.25-1.73-3.26-2.73-4.36-4.36-7.18-10.41-7.75-16.89-.68-7.65,1.78-14.7,6.94-19.85.01-.02.01-.04.03-.05l.08-.1c.08-.1.16-.21.21-.33.01-.04.02-.08.03-.12.03-.12.05-.23.06-.36.01-.03.02-.06.02-.1,0-.07.01-.17.02-.25v-.17c.12-1.5.22-2.98.31-4.47.1-1.94.17-3.73.21-5.41.02-.56.03-1.11.03-1.65,0-.48,0-.95-.01-1.41,0-.23,0-.46-.01-.69,0-.23,0-.46-.01-.68.69-.38,1.39-.76,2.09-1.12.35-.18.71-.36,1.06-.54.69-.36,1.39-.71,2.09-1.05h0c1.05-.52,2.09-1.01,3.14-1.49h0c.7-.32,1.39-.63,2.09-.93h0c.7-.31,1.39-.6,2.09-.89,5.32-2.19,10.62-3.92,15.88-5.19,1.23-.29,2.46-.56,3.68-.81.13-.03.27-.06.41-.08.28-.05.55-.11.83-.16.66-.12,1.32-.23,1.98-.34.66-.11,1.32-.21,1.98-.29.66-.09,1.32-.17,1.97-.25,1.32-.15,2.63-.27,3.94-.36.65-.04,1.29-.08,1.94-.12,1.31-.06,2.61-.09,3.9-.09.44,0,.89,0,1.33.01.41,0,.82.02,1.23.03.59.02,1.18.04,1.78.08.72.04,1.43.08,2.14.14.11,0,.22.02.32.03.4.03.79.07,1.19.11.33.03.67.07,1,.11.2.02.4.04.59.07.79.09,1.57.21,2.34.33.42.06.84.13,1.27.21.33.06.66.11.99.18.52.09,1.04.19,1.56.31.39.08.78.16,1.16.25.42.09.84.19,1.26.3.08.02.17.04.25.06.37.09.73.18,1.09.28.41.11.82.22,1.23.34.08.55.16,1.13.25,1.72.03.2.06.39.09.59.06.44.12.89.19,1.34.06.45.13.89.19,1.34.05.34.1.68.16,1.02.06.4.12.8.18,1.19.05.3.09.58.14.87.02.11.03.21.05.32.01.07.02.15.04.23.03.2.07.38.11.58.02.12.04.23.06.35.06.33.12.64.19.95.02.11.04.21.07.31.04.2.08.39.13.58.02.09.04.19.07.28.04.18.09.36.13.53.01.04.02.07.03.11.04.13.07.26.11.38.02.08.05.16.07.23,0,.06-.01.12-.01.18,0,.04,0,.08.01.13h0s0,.02,0,.02h0s0,.07,0,.11c0,.02,0,.03,0,.04,0,.06.02.11.04.16.01.03.02.06.03.09h0c.12.36.37.67.71.86.05.03.11.06.16.08.02.01.03.02.05.02.19.08.39.16.58.25.39.17.77.35,1.15.56.19.09.37.19.56.31.18.1.37.21.54.33.17.1.34.21.51.32.21.14.42.29.63.44.09.07.19.13.28.21.04.03.08.06.11.09.41.31.81.64,1.2.99.12.09.23.2.34.31.32.29.63.6.92.92.02.02.04.04.06.06,0,0,0,0,0,0,.14.14.27.28.39.43.35.38.68.79,1,1.21.09.12.18.23.27.36.14.18.27.37.4.56.14.19.27.38.38.57.13.19.26.38.37.58.13.19.24.39.36.6.11.18.21.36.31.54.25.46.49.92.71,1.39.08.15.15.31.21.46.13.27.24.54.36.82.13.32.26.66.38.99.13.35.26.71.37,1.07.1.3.19.61.28.92.04.13.08.26.12.39.09.31.17.62.24.93,2.26,9.18.47,18.91-4.57,24.8ZM185.58,17.95s0-.02,0-.03c0-.02-.01-.04-.02-.07-.03-.13-.06-.27-.09-.4-.04-.17-.08-.33-.13-.49-.03-.11-.06-.23-.09-.34-.04-.16-.09-.31-.14-.47-.02-.06-.04-.12-.06-.18-.05-.15-.11-.31-.16-.46-.05-.14-.11-.29-.16-.44-.12-.29-.24-.59-.38-.88.11.26.21.52.3.79.08.23.16.46.24.69l.1.32c.18.57.33,1.14.47,1.73.02.08.07.15.12.21h0s0,.01,0,.01Z"/>
          <path class="cls-11" d="M98.55,188.89c-.45-.22-.9-.46-1.33-.75-.18-.09-.34-.2-.5-.32-2.49-1.72-3.51-5.06-3.43-8.17,0-.2.01-.4.03-.6,1.38.09,2.96.32,4.58.47-.63,1.26-.76,3.55-.8,4.34-.02,1.74.52,3.51,1.45,5.03Z"/>
          <g>
            <path class="cls-1" d="M196.34,115.77c-.21-.09-.43-.05-.62.07-.13.08-.26.16-.38.23-9.48,5.65-23.02,7.65-34.64,4.98-.03,0-.07-.02-.1-.02h0c-.17-.02-.35.01-.49.13-.16.14-.23.37-.18.58.01.05.02.1.04.15,2.48,10.59,11.34,15.78,19.24,15.78.72,0,1.43-.04,2.13-.13,4.34-.54,8.22-2.67,10.9-6.02,2.87-3.57,4.39-8.46,4.44-14.22.01-.33,0-.67,0-1.01,0-.22-.13-.42-.33-.52ZM195.49,117.47c-.15,12.61-7.41,18.04-14.31,18.9-7.63.94-16.98-3.61-19.85-13.84,11.28,3.76,24.44,1.81,34.16-5.05Z"/>
            <path class="cls-1" d="M195.4,117.33c-9.7,6.86-22.74,8.79-34.01,5.03l-.29-.09.08.29c2.64,9.44,10.9,14.08,18.08,14.08.66,0,1.31-.04,1.95-.12,6.89-.86,14.3-6.3,14.45-19.06v-.32s-.26.19-.26.19ZM161.58,122.78c11.2,3.62,24.07,1.72,33.75-4.99-.26,12.31-7.47,17.59-14.16,18.41-7.34.91-16.65-3.49-19.59-13.42ZM195.4,117.33c-9.7,6.86-22.74,8.79-34.01,5.03l-.29-.09.08.29c2.64,9.44,10.9,14.08,18.08,14.08.66,0,1.31-.04,1.95-.12,6.89-.86,14.3-6.3,14.45-19.06v-.32s-.26.19-.26.19ZM161.58,122.78c11.2,3.62,24.07,1.72,33.75-4.99-.26,12.31-7.47,17.59-14.16,18.41-7.34.91-16.65-3.49-19.59-13.42ZM196.4,115.62c-.23-.11-.52-.09-.77.07-.13.08-.27.16-.4.24-9.48,5.65-22.96,7.6-34.5,4.95-.02,0-.03,0-.05-.01-.27-.05-.52.01-.69.16-.21.18-.3.47-.24.73.02.09.04.17.07.26,2.6,10.85,11.84,15.8,19.37,15.8.73,0,1.45-.04,2.16-.13,4.38-.54,8.29-2.7,11.01-6.07,2.87-3.57,4.41-8.47,4.47-14.21.01-.37,0-.75,0-1.13,0-.28-.17-.54-.43-.66ZM179.2,137.5c-7.47,0-16.63-4.94-19.11-15.78,0-.01-.01-.02-.01-.03-.03-.15.02-.31.14-.42.08-.07.18-.09.28-.09.06,0,.12.01.17.02,11.63,2.66,25.22.69,34.78-5.02.12-.07.24-.14.36-.22.09-.06.28-.14.46-.06.14.07.24.22.24.38,0,.3.01.59,0,.89-.03,5.77-1.54,10.68-4.4,14.24-2.67,3.31-6.5,5.42-10.8,5.95-.69.08-1.4.13-2.11.13ZM195.66,117.15l-.26.19c-9.7,6.86-22.74,8.79-34.01,5.03l-.29-.09.08.29c2.64,9.44,10.9,14.08,18.08,14.08.66,0,1.31-.04,1.95-.12,6.89-.86,14.3-6.3,14.45-19.06v-.32ZM161.58,122.78c11.2,3.62,24.07,1.72,33.75-4.99-.26,12.31-7.47,17.59-14.16,18.41-7.34.91-16.65-3.49-19.59-13.42Z"/>
          </g>
          <g>
            <path class="cls-1" d="M220.63,161.96c-.05-.16-.16-.27-.32-.34s-.37-.08-.63-.04c-.41.07-.88.2-1.42.38-.53.18-1.23.45-2.1.84-1.41.64-2.53,1.31-3.36,1.96-.83.64-1.4,1.29-1.7,1.92-.31.62-.36,1.24-.15,1.86.1.29.24.52.42.69.18.18.37.28.57.32.11.02.23,0,.36-.07.19-.1.35-.26.49-.47.13-.22.18-.39.13-.53-.02-.06-.06-.11-.11-.14-.23-.14-.39-.34-.47-.59-.09-.27-.08-.54.05-.82.13-.27.39-.58.8-.9.41-.32.99-.69,1.76-1.08.02.2.04.38.05.54.02.16.03.31.05.43.06.56.12,1.14.19,1.76.08.61.17,1.23.27,1.84.07.36.13.79.19,1.29.07.49.15.97.23,1.41.08.45.15.76.21.94.07.19.19.32.37.38.18.06.41.03.67-.08.24-.11.44-.25.57-.44.13-.19.18-.39.12-.63-.11-.43-.23-1.01-.36-1.74-.13-.72-.23-1.36-.31-1.92-.22-1.52-.41-3.04-.58-4.57.65-.28,1.18-.48,1.59-.62.41-.14.98-.33,1.71-.53.33-.09.54-.22.66-.39.11-.17.12-.38.04-.64Z"/>
            <path class="cls-1" d="M226.31,167.01c-.05-.16-.12-.29-.21-.38-.09-.09-.18-.13-.29-.11-.04.01-.1.04-.16.07-.05.03-.09.05-.14.07-.42.23-.79.4-1.12.51-.26-.6-.63-1.06-1.14-1.37-.5-.31-1.06-.36-1.66-.17-.49.17-.9.45-1.22.86-.32.41-.52.89-.61,1.43-.08.55-.03,1.12.16,1.71.14.44.36.81.66,1.12.29.31.65.53,1.06.64.41.12.86.1,1.33-.04.57-.17,1.01-.51,1.33-1.03.32-.53.45-1.14.39-1.86.48-.14.9-.33,1.27-.55.07-.04.14-.08.21-.13.21-.13.26-.38.13-.77ZM223.24,169.55c-.12.26-.31.43-.57.51-.23.07-.47.02-.71-.16-.24-.17-.43-.47-.57-.91-.17-.55-.21-1.01-.09-1.38.11-.37.33-.61.65-.72.02,0,.04-.01.06-.02.02.13.05.27.09.39.09.3.25.56.47.79.22.22.47.39.77.48.06.41.03.74-.09,1.01Z"/>
            <path class="cls-1" d="M230.73,167.28c-.05-.18-.12-.31-.21-.4-.09-.09-.18-.13-.28-.12-.12.01-.21.08-.27.21,0,0,0,0,0,.01-.23.53-.44.91-.63,1.14-.19.24-.44.38-.77.44-.21.03-.39,0-.57-.13-.17-.12-.33-.34-.49-.66.51-1.44.83-2.85.96-4.24.13-1.39.05-2.57-.24-3.55-.21-.68-.47-1.18-.81-1.51-.33-.32-.68-.43-1.07-.35-.67.16-1.12.76-1.33,1.78-.21,1.03-.24,2.2-.1,3.52.13,1.22.33,2.28.59,3.21.02.08.05.17.07.24.11.37.24.7.38,1.01.26.56.56,1.02.91,1.39.54.58,1.16.8,1.85.68.51-.09.92-.3,1.23-.64.21-.23.41-.5.57-.81.08-.14.14-.28.21-.44.09-.2.09-.47,0-.81ZM227.38,163c-.04,1.03-.19,2.08-.47,3.15-.27-.92-.47-1.9-.6-2.94s-.19-1.92-.17-2.65c.03-.72.13-1.11.31-1.15.22-.05.43.23.62.86.24.79.34,1.7.31,2.73Z"/>
            <path class="cls-1" d="M233.91,166.97c-.05-.18-.12-.32-.21-.42-.08-.1-.18-.14-.28-.14-.12.01-.21.08-.26.21-.22.48-.41.84-.56,1.08s-.29.35-.43.37c-.15.02-.28-.04-.38-.17-.1-.13-.19-.32-.27-.57-.09-.33-.18-.97-.27-1.91-.08-.78-.14-1.28-.21-1.49-.09-.28-.33-.4-.73-.34-.26.04-.44.12-.53.24-.09.12-.13.32-.12.59,0,.53.06,1.09.14,1.69.04.32.09.62.15.87.04.22.09.42.14.59.11.37.24.69.41.96.12.19.24.37.39.52.35.36.78.5,1.28.45.67-.07,1.25-.64,1.72-1.72.09-.19.09-.47,0-.81ZM231.1,161.49c-.08-.28-.24-.48-.46-.61-.23-.13-.49-.17-.78-.12-.32.05-.57.19-.72.42-.16.23-.2.49-.11.78.09.29.24.5.46.63.21.13.48.18.82.13.34-.04.58-.18.73-.41.14-.22.17-.5.07-.83Z"/>
          </g>
          <path class="cls-11" d="M172.64,113.9c.03-.27,4.68-5.8,10.39-1.21-3.75-1.05-6.91-.95-10.39,1.21Z"/>
          <path class="cls-1" d="M171.61,113.19c1.62-4.58,9.33-5.88,12.07-1.69.19.31.1.72-.22.91-.25.16-.57.12-.78-.06-1.49-1.15-3.31-1.47-5.19-1.18-1.9.31-3.79.95-4.88,2.48-.32.54-1.2.14-1.01-.46h0Z"/>
          <path class="cls-1" d="M216.78,178.02c-.17,0-.34-.07-.47-.2-.26-.26-.25-.68,0-.93.19-.19,4.78-4.61,15.25-5.6.37-.03.69.23.72.6.03.36-.23.69-.6.72-9.96.94-14.4,5.18-14.44,5.23-.13.13-.3.19-.46.19Z"/>
          <circle class="cls-1" cx="234.23" cy="171.82" r=".73"/>
          <path class="cls-1" d="M165.49,101.17c-.09.01-.18.03-.28.03-1.21,0-2.19-.98-2.19-2.19v-.15c0-1.09.8-1.98,1.84-2.15-.24-.9-.58-1.76-1.11-2.53-.48-.71-1.26-1.56-2.07-1.82-1.15-.37-2.86-.08-3.7.79-.84.87-1.39,1.62-1.17,6.72.1,2.5.49,5.18,1.34,7.53.61,1.71,1.92,3.38,3.73,3.58,1.56.17,2.99-1.1,3.54-2.57.55-1.47.43-3.1.29-4.66-.07-.86-.14-1.72-.22-2.57Z"/>
          <path class="cls-1" d="M193.22,98.07c-1.21,0-2.19-.98-2.19-2.19v-.15c0-1.06.76-1.94,1.76-2.14-.41-1.45-1.13-2.96-2.36-3.9-1.23-.94-2.97-.86-4.14.15-1.25,1.09-1.52,2.79-1.59,4.36-.04.85-.04,1.69-.01,2.54.12,3.07.49,6.84,2.47,9.33.72.9,1.75,1.64,2.9,1.71.67.04,1.35-.16,1.9-.54.91-.64,1.39-1.73,1.64-2.81.48-2.05.43-4.26.13-6.43-.17.04-.34.07-.51.07Z"/>
        </g>
        <path class="cls-9" d="M97.32,287.81c.07.4.15.79.25,1.18-.11-.39-.19-.79-.25-1.18Z"/>
        <path class="cls-9" d="M101.54,295.27c.13.12.27.23.4.34-.14-.12-.28-.24-.42-.36-.16-.14-.31-.28-.46-.43.16.15.32.29.48.44Z"/>
        <path class="cls-9" d="M113.67,198.49c-.03,1.35-.37,2.56-.93,3.62-2.48,4.67-9.35,6.47-14.23,4.71-1.79-.52-3.41-1.32-4.92-2.26-2.29-1.43-4.35-3.16-6.51-4.73-.16-.12-.31-.24-.47-.34-2.96-2.04-7.03-2.72-10.19-.81-4.51,2.09-10.49,4.48-16.55,5.7,2.99-1.51,6.07-2.97,9.23-4.37,2.91-1.29,5.89-2.53,8.94-3.72.56-.22,1.11-.43,1.67-.64.95-.37,1.91-.72,2.87-1.08.51-.19,1.03-.38,1.54-.56,4.88-1.75,9.91-3.38,15.09-4.88.92-.27,1.84-.53,2.78-.78,1.24,1.32,3.01,2.33,5.29,3.07,1.11.34,2.26.84,3.28,1.51,1.84,1.22,3.25,3.01,3.12,5.54Z"/>
        <g>
          <g>
            <path class="cls-7" d="M186.08,175.73C83.31,175.73,0,221.3,0,277.51c0,56.21,83.31,101.78,186.08,101.78,102.77,0,186.08-45.57,186.08-101.78,0-56.21-83.31-101.78-186.08-101.78ZM186.08,369.59c-97.14,0-175.88-41.23-175.88-92.08,0-50.86,78.75-92.08,175.88-92.08,97.14,0,175.88,41.23,175.88,92.08,0,50.85-78.75,92.08-175.88,92.08Z"/>
            <path class="cls-9" d="M186.08,185.43c-97.14,0-175.88,41.23-175.88,92.08,0,50.85,78.75,92.08,175.88,92.08,97.14,0,175.88-41.23,175.88-92.08,0-50.86-78.75-92.08-175.88-92.08ZM186.08,355.42c-89.31,0-161.71-34.88-161.71-77.9,0-43.02,72.4-77.9,161.71-77.9,89.31,0,161.71,34.88,161.71,77.9,0,43.02-72.4,77.9-161.71,77.9Z"/>
            <ellipse class="cls-15" cx="186.08" cy="277.51" rx="161.71" ry="77.9"/>
          </g>
          <g>
            <path class="cls-9" d="M74.88,257.44c.27,0,.8-.12,1.6-.37.8-.25,1.47-.37,2.01-.37.61,0,1.19.12,1.76.37s1.06.62,1.47,1.1c1.07,1.23,1.91,2.61,2.53,4.14.62,1.53.92,3.01.92,4.44,0,1.66-.38,2.94-1.14,3.85-.76.91-1.82,1.36-3.19,1.36-.86,0-1.67-.27-2.45-.81-.77-.54-1.47-1.33-2.07-2.37-.2-.3-.44-.71-.72-1.23-.84-1.48-1.57-2.22-2.19-2.22-.46,0-.81.18-1.03.55-.22.37-.33.93-.33,1.7v1.87c0,1.3-.04,3.61-.13,6.94-.09,3.32-.13,5.98-.13,7.95,0,1.92.15,3.28.44,4.06.29.78.82,1.38,1.56,1.79.21.11.5.24.86.4,1.3.57,1.95,1.42,1.95,2.54,0,1.55-.99,2.67-2.95,3.36-1.97.69-5.16,1.03-9.58,1.03-3.58,0-6.37-.38-8.36-1.14-1.99-.76-2.98-1.81-2.98-3.17,0-1.19.8-2.12,2.41-2.78.64-.27,1.1-.49,1.36-.67.62-.46,1.1-2.05,1.43-4.76.33-2.71.49-6.4.49-11.07v-2.49c0-2.53-.12-4.16-.35-4.88-.23-.72-.65-1.08-1.26-1.08-.64,0-1.43.68-2.35,2.03-.27.39-.48.7-.64.94-1.02,1.37-1.87,2.3-2.57,2.78-.7.48-1.46.72-2.3.72-1.05,0-1.92-.4-2.61-1.19-.69-.79-1.03-1.8-1.03-3.04,0-1.03.27-2.24.8-3.61.54-1.37,1.28-2.76,2.22-4.17.73-1.07,1.46-1.88,2.18-2.43.72-.55,1.42-.83,2.1-.83.34,0,.86.12,1.55.37.69.25,1.21.37,1.55.37h19.17Z"/>
            <path class="cls-9" d="M86.94,277.26c0-12.27,10.02-20.53,22.45-20.53,13.14,0,21.57,9.14,21.57,20.7,0,12.27-9.75,20.48-22.56,20.48s-21.46-9.36-21.46-20.64ZM111.85,290.4c2.96,0,4.43-2.85,4.43-6.9,0-6.9-4.49-19.16-10.29-19.16-2.96,0-4.38,2.79-4.38,6.79,0,6.95,4.43,19.27,10.24,19.27Z"/>
            <path class="cls-9" d="M159.75,297.02h-9.31c-4.54,0-7.72.22-10.13.22-4.82,0-7.17-.93-7.17-3.4,0-1.7,1.42-2.57,2.3-3.01,1.26-.66,1.21-1.31,1.21-2.74v-21.74c0-1.42-.33-1.97-1.48-2.63-1.2-.66-1.97-1.31-1.97-2.68,0-3.12,4.76-3.94,11.06-3.94,6.9,0,10.51.82,10.51,3.83,0,1.59-.93,2.14-2.3,2.79-1.42.66-1.37,1.53-1.37,2.79v18.78c0,4.49.22,5.26,2.85,5.26h.77c2.35,0,3.56-.27,4.44-1.37.88-1.04,1.64-3.28,2.24-4.87.82-2.3,1.97-3.94,4.05-3.94,2.03,0,3.94,2.03,3.94,6.57,0,6.08-2.96,11.39-6.63,11.39-1.32,0-2.35-.49-3.01-1.31Z"/>
            <path class="cls-9" d="M172.49,293.57c0-1.37.77-2.03,1.97-2.68,1.15-.66,1.15-1.2,1.15-2.63v-21.9c0-1.42,0-1.97-1.15-2.63-1.21-.66-1.97-1.31-1.97-2.68,0-3.12,4.27-3.94,10.35-3.94s10.35.82,10.35,3.94c0,1.37-.77,2.03-2.03,2.68-1.09.6-1.09,1.2-1.09,2.63v21.9c0,1.42,0,2.03,1.09,2.63,1.26.66,2.03,1.31,2.03,2.68,0,3.12-4.27,3.94-10.35,3.94s-10.35-.82-10.35-3.94Z"/>
            <path class="cls-9" d="M210.32,296.97c-2.14,0-4,.16-5.97.16-4.38,0-6.79-.88-6.79-3.34,0-1.7,1.53-2.57,2.24-3.01,1.2-.77,1.2-1.26,1.2-2.74v-21.63c0-1.48,0-1.97-1.2-2.74-.71-.44-2.24-1.37-2.24-3.01,0-2.46,2.41-3.34,6.79-3.34,1.92,0,3.94.11,5.86.11,3.56,0,7.88-.22,10.62-.22,7.23,0,14.29,2.57,14.29,10.07,0,4.93-3.17,7.17-5.69,8.32,3.29.6,7.99,3.72,7.99,9.97,0,9.03-9.86,11.61-15.71,11.61-6.35,0-8.76-.22-11.39-.22ZM216.84,274.3c3.45,0,4.65-2.41,4.65-5.42,0-3.23-1.31-5.64-3.78-5.64-.77,0-1.59.16-1.92.71-.33.55-.33,1.31-.33,2.46v7.83s1.37.05,1.37.05ZM215.85,290.18c.38.71,1.26.99,2.41.99,2.68,0,4.49-2.14,4.49-5.64,0-3.78-2.08-5.86-5.53-5.86-.49,0-1.15.05-1.75.11v7.78c0,.99,0,1.97.38,2.63Z"/>
            <path class="cls-9" d="M239.75,277.26c0-12.27,10.02-20.53,22.45-20.53,13.14,0,21.57,9.14,21.57,20.7,0,12.27-9.75,20.48-22.56,20.48s-21.46-9.36-21.46-20.64ZM264.66,290.4c2.96,0,4.44-2.85,4.44-6.9,0-6.9-4.49-19.16-10.29-19.16-2.96,0-4.38,2.79-4.38,6.79,0,6.95,4.44,19.27,10.24,19.27Z"/>
            <path class="cls-9" d="M292.91,293.63c0-1.42.99-1.97,2.57-2.79,1.53-.77,1.53-1.42,1.53-2.57v-9.53c-.49-1.37-1.15-2.63-2.35-4.22-4.55-6.02-7.06-9.2-9.8-10.29-1.64-.66-2.68-1.2-2.68-3.01,0-3.12,4.43-4.11,11.61-4.11,7.23,0,11.83.82,11.83,4,0,1.15-.6,1.92-2.03,2.74-.88.55-.99.93-.93,1.81.11,1.31,2.63,4.98,4.87,7.06,2.3-2.19,5.09-6.13,5.26-7.72.06-.44,0-.77-.71-1.15-1.64-.82-2.41-1.48-2.41-2.85,0-2.96,3.23-3.89,8.54-3.89,5.53,0,8.65.99,8.65,3.72,0,1.64-.88,2.35-3.01,3.07-2.63.93-5.64,4.49-9.91,10.51-1.21,1.75-1.92,3.07-2.47,4.54v9.31c0,1.26.06,1.81,1.59,2.57,1.64.82,2.57,1.48,2.57,2.79,0,3.07-4.71,3.89-11.39,3.89-6.63,0-11.33-.82-11.33-3.89Z"/>
          </g>
        </g>
        <g class="cls-10">
          <path class="cls-3" d="M175.67,158.04c-3.07,16.15,4.81,56.16,9.76,66.86-15.17,1.31-30.46.82-45.06-1.51-2.37-4.53-3.91-9.47-4.81-14.54-2.8-15.89.3-32.49,7.25-46.95.5-.97-.86-1.83-1.53-1-1.96,2.43-3.41,5.13-4.6,7.96-4.6-2.76-9.92-4.34-15.33-4.32-5.71.04-12.47.4-16.55,5.23-.11-.01-.23-.02-.34-.02h0c-7.89-.65-15.48-.75-22.83-3.64-2.83-1.21-5.85-2.63-8.58-4.21,2.2-5.02,5.72-9.37,10.05-12.77,13.1-10.21,31.63-14.22,48.01-11.22.77.14,1.53.3,2.3.47,1.78,2.4,3.91,4.5,6.32,6.18,3.04,2.12,6.43,3.82,10.16,5.1-.35.54-.53,1.16-.55,1.78-.07,1.13.37,2.29,1.13,3.09,2.78,2.71,6.88,2.84,10.46,3.3,4.9.39,9.82.34,14.74.21Z"/>
          <path class="cls-13" d="M109.73,195.39c2.78,2.64.35,6.83-2.92,8.11-2.29,1.04-4.97,1.05-7.46.26-8.02-2.47-12.37-11.86-22.1-9.12-.74.22-1.51.63-2.18.94-7.54,3.51-15.86,6.37-24.24,6.14-3.18-.32-8.25-.83-8.8-4.64-.07-1.99.88-4.81,3.03-5.46,2.46-.83,5.49-.26,8.22-.54,4.5-.32,9.24-1.58,12.47-4.91.45-.43-.07-1.23-.66-.97-4.07,1.56-8.09,2.65-12.34,2.92-2.66-.1-5.78-.03-8.35.02-4.43-.01-10.97-3.5-7.55-8.48,2.18-2.83,5.44-2.99,8.84-2.02l2.72.71c.78.16,1.54.39,2.36.48,3.98.83,8.23.35,12.05-1.01.54-.18.32-1.03-.24-.92-2.01.31-4.05.34-6.02.12-3.12-.57-14.52-2.3-12.11-7.09.65-1.43,2.16-2.53,3.67-2.6,2.23-.19,5.16,2.09,7.77,2.51,3.49.63,7.1.97,10.6-.15.12-.04.22-.09.31-.15.15.15.32.31.47.44,7.36,5.93,16.77,7.46,25.8,8.59,1.51.05,3.33.33,5.2.5-.63,1.26-.77,3.56-.8,4.34-.03,3.26,1.88,6.63,4.68,8.26,2.34,1.6,5.55,2.16,7.58,3.73Z"/>
          <path class="cls-4" d="M106.21,174.17c0,.22-.05.46-.16.69-.55,1.12-2.28,1.77-4,1.78-10.83-.56-24.17-1.95-32.85-8.85-1.13-1.01-2.25-2.23-1.96-3.65.3-1.06,1.39-1.49,2.46-.75,3.57,2.22,7.14,3.69,11.04,5.15,7.48,2.69,15.86,3.15,23.53,3.63,1.01.19,1.95,1.03,1.95,2Z"/>
          <path class="cls-11" d="M113.67,198.21c-.03,1.35-.37,2.56-.93,3.62-.94,1-2.08,1.77-3.3,2.33-5.87,2.73-12.44-.23-17.05-3.94-1.75-1.33-3.38-2.7-5.26-3.78-2.33-1.27-5.28-1.68-7.84-.96-.55.17-1.36.6-1.9.85-5.33,2.55-10.99,4.56-16.81,5.68-5.82,1.43-16.84,1.34-19.52-3.98.46.18.95.35,1.46.49.44.12.89.23,1.36.32,4.17.84,9.15.52,12.46-.28,5.82-1.12,11.47-3.13,16.81-5.68.54-.25,1.35-.68,1.9-.85,2.56-.73,5.51-.3,7.85.96.35.19.69.41,1.02.63,1.3.85,2.52,1.83,3.78,2.8.15.11.3.23.45.35.93.75,1.94,1.47,3.01,2.12,0,0,0,0,.01,0,1.78,1.07,3.71,1.95,5.71,2.44,2.74.68,5.6.63,8.31-.63,1.43-.66,2.74-1.59,3.75-2.86.5-.59.91-1.29,1.18-2.04.37-1,.53-2.09.43-3.14,1.85,1.22,3.25,3.01,3.12,5.54Z"/>
          <path class="cls-2" d="M102.62,169.68c4.61-9.71,24.37-8.18,34.37-1.53-.1.24-.21.48-.31.72-4.6-2.76-9.92-4.34-15.33-4.32-.51,0-1.02,0-1.55.02-5.3.12-11.28.91-15.01,5.21"/>
          <path class="cls-1" d="M337.21,85.44c-.38-2.76-1.92-5.03-4.08-6.1-.65-.33-1.37-.55-2.12-.65-.18-.03-.36-.05-.55-.06-1.62-.11-3.38.28-5.05,1.16-1.92,1.02-3.48,2.47-4.97,3.88l-.51.47c-1.57,1.46-3.18,2.85-4.84,4.17,3.06-4.88,4.55-10,4.34-15.2-.11-2.71-.68-4.89-1.73-6.65-1.4-2.33-3.76-3.88-6.16-4-2.46-.14-5.04,1.15-6.92,3.46-1.36,1.67-2.2,3.61-3.02,5.48l-.3.67c-1.48,3.38-3.23,6.68-5.15,9.83-1.08,1.76-2.41,3.89-4.19,4.99h-.08c-11.39,2.03-20.24,12.66-20.92,23.98-1.67-1.35-4.16-1.62-5.91-.06-1.97,2.12-1.97,4.76-1.25,7.34-12.59,8.1-24.98,13.75-39.96,13.95l-.13,2.17c14.89,1.04,29.17-4.48,41.29-12.94.4.86.82,1.7,1.2,2.46,4.14,7.17,10.16,12.88,16.58,17.97.77.61,1.54,1.21,2.31,1.8-9.21,9.25-20.78,15.66-33.05,19.95-1.56.55-3.13,1.06-4.7,1.53-.91.29-.58,1.67.35,1.55,1.06-.17,2.12-.37,3.16-.61,1.21-.26,2.41-.56,3.61-.88,2.81,3.08,5.18,6.74,7.15,10.56,3.52,6.87,5.93,14.13,7.46,21.58-1.44.76-2.88,1.52-4.32,2.27-8.53,4.47-17.12,8.8-25.95,12.51-12.68,5.35-26.34,9.09-40.32,11.29-5.82-7.06-14.89-49.67-11.34-65.87,3.26-.55,6.51-1.2,9.71-2.09,5.86-1.73,22.95-7.36,23.13-14.39.1-1.25-.44-2.4-1.3-3.13l-1.52,1.3c.54.26.85.96.8,1.73-.5,4.14-8.21,6.93-11.7,8.59-6.52,2.69-13.38,4.32-20.37,5.24-.57,0-1.09.34-1.31.86t0,0c-.03.07-.07.14-.09.22-4.14,15.69,4.45,57.17,10.79,68.02-2.23.32-4.47.58-6.72.81-4.71-7.91-13.6-52.66-9.72-67.36,0-.02,0-.05,0-.08.35-.84-.13-2.01-1.33-1.97-2.76.15-5.52.28-8.26.37-3.84-.06-16.9.76-17.91-3.72,0-.09-.02-.18-.02-.27l-2-.13c-.07,1.12.37,2.29,1.12,3.08,2.78,2.71,6.88,2.85,10.46,3.31,4.9.39,9.82.34,14.74.21-3.07,16.15,4.81,56.16,9.76,66.86-15.18,1.31-30.46.82-45.07-1.51-2.38-4.53-3.9-9.48-4.81-14.54-2.24-12.7-.71-25.87,3.55-38.02.09-.26.19-.52.28-.78,1-2.77,2.14-5.49,3.42-8.14.5-.97-.86-1.83-1.53-1-1.79,2.22-3.16,4.67-4.28,7.24-.1.24-.21.48-.31.72-4.6-2.76-9.92-4.34-15.33-4.32-.51,0-1.02,0-1.55.02-5.3.12-11.19.8-14.91,5.1-.03.03-.06.07-.09.11-.11-.01-.23-.02-.34-.02h0c-.72-.07-1.44-.12-2.15-.17-.13,0-.26-.02-.38-.03-.28-.02-.56-.04-.83-.06-6.69-.47-13.17-.91-19.47-3.38-2.83-1.21-5.85-2.63-8.58-4.21,2.2-5.02,5.72-9.36,10.06-12.77,13.1-10.21,31.63-14.22,48.01-11.22l.43-2.35c-.37-.1-.76-.21-1.14-.29-19.2-4.31-43.74,2.31-55.91,18.37-1.54,2.13-2.8,4.45-3.8,6.87-2.45-1.18-5.69.07-6.31,2.94-.36,1.48.03,2.86.75,4.05-1.62.38-3.33.46-5.04.29-1.42-.14-2.92-.36-4.34-.72-2.54-.81-4.82-2.62-7.76-2.48-4.03.23-7.52,4.09-6.5,8.19.17.52.42.98.69,1.4-.65,0-1.34,0-2.07.13-7.96,1.87-9.82,11.65-1.86,15.06,1.03.49,2.11.8,3.2.98-2.99,3.13-3.7,8.96.12,11.74,9.51,6.36,25.4.69,34.83-3.69,3.17-1.91,7.23-1.24,10.19.8.16.11.32.23.47.35,2.15,1.57,4.22,3.3,6.51,4.72,1.51.94,3.13,1.74,4.92,2.26,4.89,1.76,11.75-.04,14.23-4.71.56-1.06.9-2.27.93-3.62.13-2.53-1.28-4.32-3.12-5.54-1.02-.67-2.17-1.17-3.28-1.51-5.79-1.87-8.29-5.47-7.12-11.54,0-.06.02-.13.04-.19.02-.08.03-.17.03-.24,1.3.05,2.59,0,3.76-.26,1.79-.39,3.32-1.27,4.29-3,.32-.63.43-1.27.39-1.89-.06-1.06-.57-2.1-1.32-2.88.54-.52,1.14-.96,1.79-1.34,1.22-.72,2.61-1.2,4.07-1.53.03,0,.06-.01.09-.02,2.56-.55,5.32-.61,8.08-.68,3.36-.05,6.64.66,9.82,1.74,1.21.41,2.4.87,3.57,1.36.34.14.68.28,1.02.43-.6,1.65-1.14,3.33-1.62,5-4.43,16.01-4.61,34.05,3.38,48.99-4.12,5.8-6.99,12.28-9.24,18.97-2.05,6.38-3.54,12.95-3.79,19.68-.62,0-1.23.11-1.65.22-2.94.91-3.89,3.55-3.18,5.93-3.57-.75-7.24-.78-10.84-.13-10.56,1.45-17.79,12.05-13.19,22.17,2.03,4.61,6.47,7.49,10.86,9.53,8.72,3.94,18.59,4.12,27.83,2.39,7.55-1.4,14.55-4.34,21.67-6.96,0,.24-.02.43-.02.43-.27,2.04.99,4.14,3.01,4.7,1.04.31,2.92.16,3.96.26,3.33.09,6.58.14,10.04-.04.97-.08,1.96-.34,2.86-.85,1.38-.74,2.45-2.21,2.7-3.79.22-1.05.08-2.88.18-3.92.04-3.08.05-6.17-.04-9.27,1.48-.39,2.84-1.12,3.72-2.4,1.83-2.36.84-6.32-1.94-7.23.55-3.22,1.02-6.4,1.85-9.45.89-3.37,2.2-6.53,4.03-9.5.09-.14.12-.29.12-.45,7.91,1.25,16.07.4,23.64-2.27.44,1.59.82,3.2,1.1,4.83.95,5.51,1.07,11.17.48,16.72-.83.28-1.66.83-2,1.31-1.83,2.14-1.21,5.56.96,7.18.72.6,1.58,1,2.5,1.25-.03,3.05-.04,6.1,0,9.16.09,1.65-.19,3.85.54,5.39,1.05,2.43,3.85,3.63,6.31,3.52.79.03,2.89.03,3.71.07,2.39.06,5.01.03,7.42-.02,3.03.18,5.08-1.91,5.04-4.66,15.96,5.34,33.75,11.02,49.82,3.35,4.32-2.06,8.65-5.07,10.53-9.7,2.01-4.61,1.49-10.16-1.29-14.34-4.82-7.26-14.51-8.97-22.73-7.26.08-.24.14-.48.18-.74.51-2.85-1.76-5.11-4.34-5.45.88-3.7,1.81-7.38,2.59-11.1.62-3.79,1.79-9.31,2.14-13.12,1.15-8.69,1.56-17.87,1.11-26.6-1.11-17.18-5.38-35.12-16.55-48.66-.02-.02-.04-.05-.06-.07.6-.19,1.2-.4,1.8-.62,10.65-3.78,20.45-10.12,28.42-18.07,2.87,1.57,6.9,2.11,8.53-1.24,1.05-2.09.69-3.72-.33-5.07,3.46.23,6.99-.47,10.22-1.72,1.87-.78,3.89-1.78,5.17-3.44,0,0,0,0,0-.01h0c.22.01.42.05.64.05,2.21,0,4.49-.67,6.51-1.94.36-.22.7-.46,1.03-.73,4.7-3.67,6.63-10.67,4.3-16.19-.66-1.55-1.64-2.95-2.84-4.12-.45-.44-.92-.84-1.42-1.22-.59-.45-1.21-.84-1.86-1.2.56-.2,1.11-.41,1.64-.63.1-.04.19-.08.29-.12,5.41-2.22,9.52-5.09,12.5-8.75,1.67-2.05,2.98-4.35,3.95-6.93.96-2.54,1.3-4.76,1.03-6.79ZM102.15,191.66c2.34,1.59,5.55,2.15,7.58,3.73.14.13.27.28.38.42,2.14,2.64-.2,6.47-3.31,7.69-1.27.58-2.66.84-4.07.82-1.13,0-2.28-.2-3.39-.55-2.08-.64-3.91-1.75-5.65-2.99-.86-.61-1.69-1.25-2.53-1.88,0,0,0,0-.01,0-1.14-.87-2.28-1.73-3.46-2.47-1.49-.93-3.05-1.69-4.79-2.04-.1-.02-.2-.04-.3-.06-1.61-.29-3.37-.24-5.36.32-.74.22-1.51.64-2.18.94-7.54,3.51-15.87,6.37-24.25,6.14-2.72-.27-6.83-.69-8.3-3.19-.25-.42-.42-.9-.5-1.45-.07-1.99.87-4.81,3.03-5.46,2.31-.78,5.12-.33,7.71-.49h.02c.16-.01.33-.03.49-.04,4.5-.31,9.24-1.57,12.47-4.91.14-.14.19-.31.17-.48-1.3.24-2.61.44-3.93.6-3.03.97-6.06,1.62-9.23,1.82-2.66-.09-5.78-.03-8.35.02-3.42,0-8.08-2.08-8.48-5.31-.12-.96.14-2.03.93-3.17,2.18-2.83,5.44-2.98,8.84-2.02l2.72.71c.78.16,1.54.39,2.36.48,3.11.65,6.38.5,9.48-.25h0c.87-.21,1.73-.46,2.56-.76.29-.09.36-.4.27-.63-.88,0-1.77-.02-2.64-.07-1.31.08-2.61.04-3.88-.1-2.89-.53-12.93-2.06-12.42-6.11.04-.31.14-.64.31-.98.65-1.43,2.15-2.53,3.67-2.6,2.23-.18,5.16,2.09,7.76,2.5,3.49.64,7.1.97,10.6-.15.12-.04.22-.09.31-.15.15.15.32.3.47.44,7.36,5.93,16.77,7.46,25.8,8.59.2,0,.41.02.62.04,1.38.09,2.96.32,4.58.47-.63,1.26-.76,3.55-.8,4.34-.02,1.74.52,3.51,1.45,5.03.81,1.33,1.93,2.47,3.23,3.23ZM106.05,174.86c-.55,1.11-2.27,1.77-4,1.78-2.23-.11-4.57-.27-6.96-.49-9.17-.87-19-2.88-25.89-8.36-1.13-1.01-2.25-2.23-1.96-3.66.29-1.06,1.39-1.48,2.46-.75,3.57,2.22,7.14,3.69,11.04,5.16,6.92,2.49,14.61,3.07,21.79,3.52.59.04,1.17.07,1.75.11,1.01.19,1.95,1.03,1.95,2.01,0,.22-.06.46-.17.69ZM176.22,296.09c.16,4.52-5.09,3.77-8.29,3.96-1.62.06-5.86.19-7.43.22-1.73.19-2.96-.97-3.03-2.59-.01-.12,0-.24,0-.36l-.04-.94c1.06-.37,2.11-.74,3.17-1.1.85-.28.44-1.51-.36-1.3-4.48,1.12-8.9,2.41-13.3,3.68-12.57,4.19-26.7,6.74-39.2,1.13-3.81-1.77-7.68-4.12-9.44-8.07-1.74-3.72-1.47-8.3.73-11.82,4.62-7.39,15.11-8.16,22.84-5.97.04.03.09.07.13.1,8.28,5.25,18.12,7.65,27.62,9.42,8.14,1.48,16.51,2.04,24.75,2.32.09,0,.18,0,.26,0,.71.04,1.48.03,2.27-.04-.34,3.76-.55,7.58-.68,11.34ZM288.51,274.48c5.35,3.11,7.96,10.18,5.38,15.91-1.62,3.96-5.33,6.41-9.08,8.22-8,3.72-17.18,3.93-25.82,2.65-8.83-1.27-17.45-4.13-26.3-6.27-.41-.1-.82.13-.95.54-.14.41.09.87.51,1.01.74.25,1.5.5,2.27.75-.14,1.05-.47,2.11-1.53,2.52-.54.23-.89.18-1.83.12l-2.44-.12c-2.76-.11-5.74-.13-8.51-.17-2.09.15-4.18-.99-4.22-3.11-.01-.4-.13-2.59-.14-3.05-.13-2.91-.32-5.82-.54-8.73.74.05,1.47.05,2.12.02,15.06-.76,30.37-2.05,44.58-7.54,2.39-.94,4.71-2.07,6.93-3.34.61-.37,1.21-.78,1.74-1.25,5.83-1.52,12.57-1.15,17.83,1.84ZM267.78,251.96c-.87,4.04-1.91,8.04-2.86,12.04,0,0,0,.01,0,.02,0,0,0,.02,0,.02-.05.21-.1.43-.15.64-.28.91.28,1.87,1.2,2.09.61.14,1.23-.09,1.62-.55.88.07,1.66.46,2.08,1.11,1.96,3.48-6.37,5.98-8.74,7.14-12.26,4.73-25.57,6.46-38.64,7.48-2.86,0-7.78,1.14-10.12-.68-1.23-.81-1.65-2.73-.71-3.88.34-.44.82-.67,1.38-.7.32-.02.59-.19.78-.44.04-.06.07-.12.11-.18,0-.03.03-.06.04-.1.02-.05.07-.1.08-.15.53-2.02.81-4.06.96-6.12.36-5.87-.32-11.91-2.65-17.35,1.68-.68,3.33-1.43,4.92-2.29.79-.39.28-1.62-.55-1.36-2.69.8-5.39,1.61-8.1,2.32-3.35.87-6.72,1.58-10.17,1.93-2.56.29-5.12.37-7.68.32-1.54-.02-3.07-.1-4.61-.2-1.97-.13-3.95-.3-5.93-.49-.18-.02-.37-.03-.55-.05-.65-.07-.84.9-.22,1.09.13.04.27.09.4.13,1.68.54,3.38.97,5.1,1.31-5,5.45-6.32,13.35-6.49,20.45,0,.03.01.04.01.08,0,.06,0,.11,0,.17h0s0,.04,0,.06c.04.27.18.52.42.67.14.09.33.16.55.17,1.1.03,1.91,1.11,1.88,2.34-.22,3.09-3.94,3.53-6.42,3.27l-.35-.03-4.61-.34c-6.6-.56-13.16-1.34-19.67-2.38-9.21-1.61-18.5-3.77-26.53-8.62-2.85-1.86-1.6-5.24,1.65-4.67.71.26,1.66-.11,1.68-1.11.21-6.84,1.87-13.66,4.1-20.13,2.3-6.42,5.27-12.78,9.37-18.2.09-.13.17-.28.23-.44,22.01,3.54,44.71,2.56,66.56-1.63,20.57-3.92,39.71-12.78,58.07-22.56,1.46-.77,2.91-1.56,4.35-2.34,3.02,17.13,1.53,35.22-1.83,52.14ZM291.5,143.61c-.8-.17-1.57-.51-2.31-.94-1.62-.96-3.1-2.37-4.52-3.44-4.51-3.69-8.84-7.76-12.46-12.28-2.77-3.7-5.6-7.68-5.8-12.24.07-2.4,2.3-2.8,3.46-.77.52,1.1,1.06,2.19,1.62,3.27h0c.06.3.19.54.37.7,3.11,5.81,7.02,11.27,12.05,15.59,2.25,1.96,4.87,3.67,7.25,5.41.32.27.69.51,1.05.74.96.64,1.86,1.26,1.78,2.33-.19,1.28-.97,2.01-2.49,1.63ZM290.95,135.23c-.1-.07-.2-.14-.3-.2-1.72-1.18-3.5-2.4-4.96-3.64-4.44-3.7-8.03-8.43-10.8-13.52-.34-.57-.61-1.15-.88-1.74-.46-2.77-.43-5.61.2-8.33,1.96-8.52,9.39-16.24,18.07-17.65.59-.06.99-.36,1.23-.73,2.38-1.48,3.97-4.04,5.16-5.97,2-3.26,3.8-6.69,5.34-10.17l.31-.69c.76-1.77,1.5-3.43,2.6-4.81,1.27-1.57,2.92-2.46,4.44-2.36,1.44.09,2.89,1.07,3.79,2.58.8,1.33,1.23,3.05,1.31,5.26.34,8-3.71,15.61-12.01,22.62-.13.11-.22.24-.3.37-5.08-4.7-14.03-2.21-17.88,2.9-.4.5.33,1.22.83.79,3.43-2.64,7.9-4.16,12.12-3.5,4.45.92,5.67,5.48,6.24,9.73l1.28,9.24c.4,2.72.84,5.71-.81,7.93-1.48,2.03-4.62,1.86-6.62.58-2.27-1.39-3.74-4.03-4.95-6.77-1.22-2.76-2.21-5.6-3.12-8.53-.27-.86-1.57-.64-1.52.27.57,6.2,2.76,13.61,8.13,17.36,1.62,1.02,3.31,1.46,4.89,1.41.49,1.52,1.43,2.89,2.66,3.96.67.59,1.43,1.09,2.26,1.48-4.6,3.28-11.55,4.32-16.73,2.17ZM321.19,116.35c.21.51.38,1.03.51,1.56,1.02,4.34-.88,9.32-4.68,11.7-2.16,1.37-4.76,1.82-6.94,1.22-.86-.23-1.66-.64-2.36-1.17-.94-.72-1.67-1.66-2.07-2.7,2.45-1.14,4.22-3.64,4.31-7.07.13-2.33-.52-6.36-1.11-9.8.28-.06.55-.11.83-.15,2.34-.34,4.78.19,6.86,1.35,2.05,1.14,3.75,2.9,4.66,5.06ZM333.42,91.19c-2.84,7.47-8.95,12.41-19.22,15.57-.25.08-.46.22-.62.39-.42-.08-.83-.14-1.25-.18-1.32-.13-2.65-.07-3.95.21-.08-.54-.15-1.02-.21-1.45-.36-2.4-.91-4.96-2.14-7.13,1.4-.57,3.14-1.93,5.24-3.64.69-.55,1.34-1.09,1.76-1.4,3.09-2.18,6.09-4.62,8.91-7.25l.52-.48c1.42-1.33,2.76-2.59,4.33-3.43,1.63-.85,3.32-1.06,4.63-.58.13.05.26.1.38.17,1.29.64,2.23,2.13,2.47,3.87.21,1.53-.08,3.28-.85,5.35ZM179.49,252.53c-.65-.07-.84.9-.22,1.09.13.04.27.09.4.13.11-.38.24-.77.37-1.16-.18-.02-.37-.03-.55-.05Z"/>
          <path class="cls-8" d="M106.03,174.18c0,.2-.06.42-.17.64-.55,1.04-2.27,1.65-4,1.66-2.23-.11-4.57-.25-6.96-.46,1.54.04,3.07-.07,4.56-.62,1.49-.53,2.49-1.63,2.8-2.83.03-.11.06-.23.07-.35.59.04,1.17.07,1.75.1,1.01.18,1.95.96,1.95,1.86Z"/>
          <path class="cls-11" d="M98.55,188.62c-.45-.22-.9-.46-1.33-.75-.18-.09-.34-.2-.5-.32-2.49-1.72-3.51-5.06-3.43-8.17,0-.2.01-.4.03-.6,1.38.09,2.96.32,4.58.47-.63,1.26-.76,3.55-.8,4.34-.02,1.74.52,3.51,1.45,5.03Z"/>
        </g>
      </g>
      <g>
        <path class="cls-9" d="M148.04,73.08c-.04-.25.15-.43.49-.62.21-.14.21-.41.15-.77-.19-1.1-.37-2.2-.56-3.3-.13-.76-.22-1.01-.44-.94-.03.01-.06.02-.09.03-.32.11-.57.26-.66.47-.09.2-.16.5-.2.78-.09.51-.21.8-.5.9-.3.11-.58-.11-.68-.69-.16-.93.14-2.07.68-2.26.21-.07.37-.03.47.09,1.41-.49,2.83-.96,4.25-1.41.06-.17.19-.31.4-.38.53-.17,1.17.67,1.33,1.61.1.58-.09.95-.39,1.05-.3.09-.49-.09-.74-.5-.13-.22-.28-.44-.43-.58-.15-.14-.41-.11-.74-.01-.03,0-.06.02-.09.03-.22.07-.22.36-.09,1.12.19,1.1.37,2.21.56,3.31.06.37.16.59.39.59.37-.02.59.02.63.27.08.45-.63.79-1.77,1.16-1.15.37-1.89.49-1.97.05Z"/>
        <path class="cls-9" d="M153.46,68.24c-.36-2.13,1.13-4.15,3.31-4.74,2.27-.61,4.08.65,4.43,2.7.36,2.16-1.1,4.04-3.34,4.62-2.25.59-4.06-.58-4.4-2.59ZM158.18,69.59c.78-.2,1.18-.99,1-2.03-.23-1.38-1.43-3.17-2.72-2.82-.78.21-1.17,1.01-.99,2.04.23,1.37,1.42,3.14,2.71,2.81Z"/>
        <path class="cls-9" d="M167.07,68.59c-.6.11-1.21.23-1.81.36-.67.14-1.18.27-1.55.34-.92.2-1.4.19-1.47-.2-.05-.27.17-.46.45-.58.18-.11.15-.38.09-.74-.21-1.25-.42-2.5-.63-3.75-.06-.37-.16-.62-.36-.64-.3-.01-.5-.08-.54-.32-.07-.44.63-.75,1.68-.98,1.11-.25,1.76-.24,1.84.2.04.27-.13.4-.42.55-.2.11-.17.4-.11.77.19,1.13.38,2.26.57,3.39.13.78.22,1,.62.92.11-.02.21-.04.32-.06.57-.11.98-.25,1.1-.47.11-.19.16-.57.21-.87.07-.49.19-.81.51-.87.31-.06.63.22.74.88.16.98-.15,2.13-.74,2.24-.22.04-.38-.02-.51-.16Z"/>
        <path class="cls-9" d="M169.12,67.7c-.04-.25.12-.39.4-.52.17-.1.15-.36.09-.74-.21-1.27-.42-2.53-.63-3.8-.06-.38-.13-.63-.33-.67-.3-.03-.5-.1-.54-.35-.07-.44.58-.71,1.62-.89,1.04-.18,1.74-.14,1.82.3.04.25-.12.39-.41.51-.17.09-.15.36-.08.74.21,1.27.42,2.54.63,3.81.06.38.13.64.32.67.31.03.51.12.55.37.08.46-.58.68-1.62.85-1.04.17-1.74.16-1.82-.3Z"/>
        <path class="cls-9" d="M175.49,67.26c-.33.04-.61.09-.9.13-.74.1-1.22.06-1.29-.34-.05-.29.18-.44.45-.55.17-.1.15-.36.09-.74-.21-1.26-.42-2.51-.62-3.77-.06-.38-.14-.63-.33-.67-.29-.03-.56-.12-.61-.4-.06-.39.37-.59,1.11-.69.29-.04.62-.07.92-.11.55-.07,1.34-.23,1.8-.28,1.46-.18,2.64.34,2.84,1.54.14.87-.36,1.37-.79,1.64.67.06,1.57.57,1.75,1.67.24,1.48-1.16,2.24-2.45,2.39-.97.11-1.54.14-1.97.19ZM176.14,63.02c.69-.08.93-.55.83-1.2-.1-.59-.43-1.08-1.18-.99-.2.02-.41.08-.52.2-.08.08-.03.32.02.64.08.47.15.93.23,1.4.21,0,.42-.02.61-.05ZM176.11,66.09c.15.1.38.12.67.08.77-.09,1.09-.55.98-1.26-.13-.76-.66-1.13-1.47-1.03-.17.02-.41.06-.61.1.08.49.16.97.24,1.46.05.31.1.59.19.66Z"/>
        <path class="cls-9" d="M180.32,63.09c-.36-2.2,1.13-3.92,3.31-4.07,2.27-.15,4.07,1.48,4.42,3.6.36,2.23-1.09,3.82-3.33,3.95-2.25.13-4.06-1.41-4.4-3.48ZM185.04,65.41c.78-.04,1.18-.75,1-1.82-.23-1.42-1.43-3.46-2.72-3.38-.78.05-1.17.78-.99,1.84.23,1.42,1.42,3.43,2.71,3.36Z"/>
        <path class="cls-9" d="M190.44,65.69c-.04-.25.14-.36.5-.46.22-.08.21-.36.15-.71-.08-.5-.16-1-.24-1.49-.16-.29-.33-.55-.63-.89-1.31-1.52-1.8-2.02-2.21-2.13-.32-.06-.54-.18-.58-.44-.07-.45.59-.68,1.82-.71,1.26-.03,1.93.14,2,.59.04.23-.1.36-.38.46-.14.06-.12.16,0,.43.15.31.82,1.11,1.3,1.55.32-.48.7-1.25.77-1.69.03-.15.03-.26-.14-.32-.36-.1-.56-.22-.6-.46-.07-.43.51-.6,1.46-.59.92.01,1.48.22,1.54.62.04.25-.12.37-.51.47-.41.13-.8.85-1.5,2.24-.16.32-.25.55-.3.8.08.52.17,1.03.25,1.55.06.37.13.63.38.72.39.1.6.22.63.47.07.47-.61.59-1.77.59-1.15,0-1.9-.12-1.97-.59Z"/>
      </g>
    </g>
  </g>
</svg>