<?xml version="1.0" encoding="UTF-8"?>
<svg id="Capa_2" data-name="Capa 2" xmlns="http://www.w3.org/2000/svg" viewBox="0 0 906.69 263.8">
  <defs>
    <style>
      .cls-1 {
        fill: none;
        stroke: #1a428a;
        stroke-miterlimit: 10;
        stroke-width: 4.72px;
      }

      .cls-2 {
        fill: #1a428a;
      }

      .cls-3 {
        fill: #ffda00;
      }

      .cls-4 {
        fill: #ea0029;
      }
    </style>
  </defs>
  <g id="Capa_1-2" data-name="Capa 1">
    <g>
      <line class="cls-1" x1="516.22" y1="21.59" x2="516.22" y2="242.09"/>
      <g>
        <g>
          <path class="cls-2" d="M241.15,0C107.97,0,0,59.05,0,131.9s107.97,131.9,241.15,131.9,241.15-59.05,241.15-131.9S374.34,0,241.15,0ZM241.15,251.23c-125.88,0-227.93-53.43-227.93-119.33S115.27,12.57,241.15,12.57s227.93,53.43,227.93,119.33-102.05,119.33-227.93,119.33Z"/>
          <path class="cls-3" d="M241.15,12.57C115.27,12.57,13.22,66,13.22,131.9s102.05,119.33,227.93,119.33,227.93-53.43,227.93-119.33S367.04,12.57,241.15,12.57ZM241.15,232.86c-115.74,0-209.56-45.2-209.56-100.96S125.42,30.94,241.15,30.94s209.56,45.2,209.56,100.96-93.82,100.96-209.56,100.96Z"/>
          <ellipse class="cls-4" cx="241.15" cy="131.9" rx="209.56" ry="100.96"/>
        </g>
        <g>
          <path class="cls-3" d="M97.04,105.88c.35,0,1.04-.16,2.08-.49,1.04-.32,1.91-.49,2.6-.49.79,0,1.55.16,2.29.49.74.32,1.38.8,1.91,1.42,1.39,1.59,2.48,3.38,3.27,5.37.8,1.99,1.2,3.9,1.2,5.75,0,2.15-.49,3.81-1.47,4.99-.98,1.18-2.36,1.77-4.14,1.77-1.11,0-2.17-.35-3.17-1.06-1-.7-1.9-1.73-2.69-3.07-.25-.39-.57-.92-.94-1.59-1.08-1.92-2.03-2.88-2.84-2.88-.6,0-1.05.24-1.33.71-.29.47-.43,1.21-.43,2.2v2.43c0,1.69-.06,4.68-.17,8.99-.12,4.31-.17,7.74-.17,10.31s.19,4.25.57,5.27c.38,1.02,1.06,1.79,2.03,2.32.28.14.65.31,1.11.52,1.69.74,2.53,1.84,2.53,3.29,0,2.01-1.28,3.46-3.83,4.35-2.55.89-6.69,1.33-12.42,1.33-4.64,0-8.25-.49-10.83-1.47-2.58-.98-3.86-2.35-3.86-4.11,0-1.55,1.04-2.75,3.12-3.6.83-.35,1.42-.63,1.77-.87.81-.6,1.43-2.66,1.85-6.17.43-3.51.64-8.29.64-14.34v-3.22c0-3.28-.15-5.39-.45-6.32-.3-.94-.84-1.4-1.63-1.4-.83,0-1.85.88-3.05,2.63-.35.51-.62.91-.83,1.21-1.32,1.78-2.43,2.98-3.33,3.6-.9.62-1.89.93-2.98.93-1.36,0-2.49-.51-3.38-1.54-.89-1.03-1.33-2.34-1.33-3.93,0-1.34.35-2.9,1.04-4.68.69-1.78,1.65-3.58,2.88-5.41.95-1.39,1.89-2.44,2.82-3.15.94-.72,1.84-1.07,2.72-1.07.44,0,1.11.16,2.01.49.9.32,1.57.49,2.01.49h24.84Z"/>
          <path class="cls-3" d="M112.67,131.57c0-15.89,12.99-26.61,29.09-26.61,17.03,0,27.96,11.85,27.96,26.82,0,15.89-12.63,26.54-29.24,26.54s-27.81-12.13-27.81-26.75ZM144.95,148.6c3.83,0,5.75-3.69,5.75-8.94,0-8.94-5.82-24.83-13.34-24.83-3.83,0-5.68,3.62-5.68,8.8,0,9.01,5.75,24.98,13.27,24.98Z"/>
          <path class="cls-3" d="M207.02,157.18h-12.06c-5.89,0-10,.28-13.13.28-6.24,0-9.29-1.21-9.29-4.4,0-2.2,1.84-3.34,2.98-3.9,1.63-.85,1.56-1.7,1.56-3.55v-28.17c0-1.84-.43-2.55-1.92-3.41-1.56-.85-2.55-1.7-2.55-3.48,0-4.04,6.17-5.11,14.33-5.11,8.94,0,13.62,1.06,13.62,4.97,0,2.06-1.21,2.77-2.98,3.62-1.85.85-1.77,1.99-1.77,3.62v24.34c0,5.82.28,6.81,3.69,6.81h.99c3.05,0,4.61-.35,5.75-1.77,1.14-1.35,2.13-4.26,2.91-6.32,1.06-2.98,2.55-5.11,5.25-5.11s5.11,2.63,5.11,8.52c0,7.88-3.83,14.76-8.59,14.76-1.7,0-3.05-.64-3.9-1.7Z"/>
          <path class="cls-3" d="M223.54,152.71c0-1.77.99-2.62,2.56-3.48,1.49-.85,1.49-1.56,1.49-3.41v-28.38c0-1.84,0-2.55-1.49-3.41-1.56-.85-2.56-1.7-2.56-3.48,0-4.04,5.54-5.11,13.41-5.11s13.41,1.06,13.41,5.11c0,1.77-.99,2.63-2.63,3.48-1.42.78-1.42,1.56-1.42,3.41v28.38c0,1.84,0,2.63,1.42,3.41,1.63.85,2.63,1.7,2.63,3.48,0,4.04-5.54,5.11-13.41,5.11s-13.41-1.06-13.41-5.11Z"/>
          <path class="cls-3" d="M272.57,157.11c-2.77,0-5.18.21-7.74.21-5.68,0-8.8-1.14-8.8-4.33,0-2.2,1.98-3.34,2.91-3.9,1.56-.99,1.56-1.63,1.56-3.55v-28.03c0-1.92,0-2.55-1.56-3.55-.92-.57-2.91-1.77-2.91-3.9,0-3.19,3.12-4.33,8.8-4.33,2.48,0,5.11.14,7.59.14,4.61,0,10.22-.28,13.77-.28,9.37,0,18.52,3.34,18.52,13.06,0,6.39-4.11,9.3-7.38,10.79,4.26.78,10.36,4.83,10.36,12.91,0,11.71-12.77,15.04-20.36,15.04-8.23,0-11.35-.28-14.76-.28ZM281.01,127.74c4.47,0,6.03-3.12,6.03-7.02,0-4.19-1.7-7.31-4.89-7.31-.99,0-2.06.21-2.48.92-.42.71-.42,1.7-.42,3.19v10.15l1.77.07ZM279.73,148.32c.5.92,1.63,1.28,3.12,1.28,3.48,0,5.82-2.77,5.82-7.31,0-4.9-2.7-7.59-7.16-7.59-.64,0-1.49.07-2.27.14v10.08c0,1.28,0,2.55.49,3.41Z"/>
          <path class="cls-3" d="M310.7,131.57c0-15.89,12.99-26.61,29.09-26.61,17.03,0,27.96,11.85,27.96,26.82,0,15.89-12.63,26.54-29.24,26.54s-27.82-12.13-27.82-26.75ZM342.98,148.6c3.83,0,5.75-3.69,5.75-8.94,0-8.94-5.82-24.83-13.34-24.83-3.83,0-5.68,3.62-5.68,8.8,0,9.01,5.75,24.98,13.27,24.98Z"/>
          <path class="cls-3" d="M379.59,152.78c0-1.84,1.28-2.55,3.33-3.62,1.99-.99,1.99-1.84,1.99-3.34v-12.35c-.64-1.77-1.49-3.41-3.05-5.46-5.89-7.81-9.15-11.92-12.7-13.34-2.13-.85-3.48-1.56-3.48-3.9,0-4.04,5.75-5.32,15.04-5.32s15.33,1.06,15.33,5.18c0,1.49-.78,2.48-2.63,3.55-1.14.71-1.28,1.21-1.2,2.34.14,1.7,3.41,6.46,6.32,9.15,2.98-2.84,6.6-7.95,6.81-10.01.07-.57,0-.99-.92-1.49-2.13-1.06-3.12-1.92-3.12-3.69,0-3.83,4.19-5.04,11.07-5.04s11.21,1.28,11.21,4.83c0,2.13-1.14,3.05-3.9,3.97-3.41,1.21-7.31,5.82-12.84,13.62-1.56,2.27-2.48,3.97-3.2,5.89v12.06c0,1.63.07,2.34,2.06,3.34,2.13,1.06,3.33,1.92,3.33,3.62,0,3.97-6.1,5.04-14.76,5.04s-14.69-1.06-14.69-5.04Z"/>
        </g>
      </g>
      <g>
        <path class="cls-2" d="M552.18,48.71h15.36c7.88,0,13.25,4.4,13.25,11.71,0,7.92-5.76,12-13.55,12h-9.13v16.06h-5.93v-39.77ZM558.11,67.53h8.71c5.17,0,7.91-2.45,7.91-6.97s-3.24-6.96-7.71-6.96h-8.91v13.93Z"/>
        <path class="cls-2" d="M591,71.26v17.22h-5.83v-39.77h15.91c8.27,0,12.68,4.5,12.68,10.69,0,5.2-2.96,8.29-6.59,9.37,3,.84,5.86,3.2,5.86,10.14v1.75c0,2.73-.1,6.12.54,7.82h-5.7c-.72-1.72-.7-4.79-.7-8.62v-.8c0-5.41-1.5-7.8-8.5-7.8h-7.66ZM591,66.37h8.38c5.82,0,8.33-2.19,8.33-6.45s-2.63-6.33-7.81-6.33h-8.9v12.77Z"/>
        <path class="cls-2" d="M654.47,68.38c0,10.96-6.23,20.67-18.84,20.67-11.85,0-18.39-9.05-18.39-20.46s6.77-20.46,18.87-20.46c11.28,0,18.36,8.36,18.36,20.25ZM623.4,68.42c0,8.44,4.21,15.66,12.48,15.66,8.93,0,12.43-7.38,12.43-15.61s-3.96-15.36-12.44-15.36-12.46,6.97-12.46,15.32Z"/>
        <path class="cls-2" d="M659.73,48.71h14.51c11.26,0,18.82,7.62,18.82,19.47s-7.37,20.31-19.03,20.31h-14.3v-39.77ZM665.64,83.53h7.99c9.03,0,13.28-6.51,13.28-15.27,0-7.6-3.89-14.61-13.26-14.61h-8.01v29.88Z"/>
        <path class="cls-2" d="M704.09,48.71v23.89c0,9.06,4.92,11.55,9.86,11.55,5.76,0,9.76-2.73,9.76-11.55v-23.89h5.93v23.59c0,13.04-7.29,16.7-15.81,16.7s-15.71-3.93-15.71-16.36v-23.92h5.97Z"/>
        <path class="cls-2" d="M768.63,77.02c-1.73,6.88-6.87,11.97-16.08,11.97-12.03,0-18.02-9.01-18.02-20.26s6.03-20.59,18.26-20.59c9.61,0,14.71,5.51,15.84,12.16h-5.9c-1.31-4.09-4.04-7.32-10.16-7.32-8.45,0-11.88,7.67-11.88,15.57s3.21,15.61,12.11,15.61c6.03,0,8.55-3.56,9.9-7.13h5.93Z"/>
        <path class="cls-2" d="M781.91,53.7h-12.7v-5h31.35v5h-12.71v34.78h-5.93v-34.78Z"/>
        <path class="cls-2" d="M837.22,68.38c0,10.96-6.23,20.67-18.84,20.67-11.85,0-18.39-9.05-18.39-20.46s6.77-20.46,18.87-20.46c11.28,0,18.36,8.36,18.36,20.25ZM806.16,68.42c0,8.44,4.21,15.66,12.48,15.66,8.93,0,12.43-7.38,12.43-15.61s-3.96-15.36-12.44-15.36-12.46,6.97-12.46,15.32Z"/>
        <path class="cls-2" d="M845.5,77.3c1.05,4.62,4.23,7.04,9.78,7.04,5.9,0,8.26-2.7,8.26-6.3,0-3.85-1.95-5.92-9.7-7.79-9.65-2.33-12.79-5.67-12.79-11.22,0-6.1,4.51-10.9,13.49-10.9,9.68,0,13.63,5.51,14.18,10.85h-5.99c-.66-3.33-2.71-6.19-8.38-6.19-4.59,0-7.19,2.04-7.19,5.65s2.14,4.96,9.01,6.61c11.39,2.75,13.49,7.15,13.49,12.35,0,6.58-4.89,11.59-14.77,11.59s-14.52-5.37-15.37-11.69h5.99Z"/>
        <path class="cls-2" d="M584.1,137.3c-1.73,6.88-6.87,11.97-16.08,11.97-12.03,0-18.02-9.01-18.02-20.26s6.03-20.59,18.26-20.59c9.61,0,14.71,5.51,15.84,12.16h-5.9c-1.31-4.09-4.04-7.32-10.16-7.32-8.45,0-11.88,7.67-11.88,15.57s3.21,15.61,12.11,15.61c6.03,0,8.55-3.56,9.9-7.13h5.93Z"/>
        <path class="cls-2" d="M624.17,128.67c0,10.96-6.23,20.67-18.84,20.67-11.85,0-18.39-9.05-18.39-20.46s6.77-20.46,18.87-20.46c11.28,0,18.36,8.36,18.36,20.25ZM593.1,128.71c0,8.44,4.21,15.66,12.48,15.66,8.93,0,12.43-7.38,12.43-15.61s-3.96-15.36-12.44-15.36-12.46,6.97-12.46,15.32Z"/>
        <path class="cls-2" d="M663.31,132.2c0-7.27.08-14.8.26-19.04h-.22c-1.73,6.76-7.71,23.11-12.13,35.61h-5.22c-3.34-10.31-9.52-28.69-11.3-35.69h-.19c.31,4.61.45,13.32.45,20.14v15.56h-5.51v-39.77h8.8c4.25,11.97,9.38,27.35,10.71,32.58h.09c.94-4.09,7.06-20.9,11.47-32.58h8.54v39.77h-5.75v-16.57Z"/>
        <path class="cls-2" d="M702.15,130.45h-19.64v13.32h21.58l-.74,5h-26.61v-39.77h26.34v5h-20.56v11.46h19.64v5Z"/>
        <path class="cls-2" d="M711.82,137.58c1.05,4.62,4.23,7.04,9.78,7.04,5.9,0,8.26-2.7,8.26-6.3,0-3.85-1.95-5.92-9.7-7.79-9.65-2.33-12.79-5.67-12.79-11.22,0-6.1,4.51-10.9,13.49-10.9,9.68,0,13.63,5.51,14.18,10.85h-5.99c-.66-3.33-2.71-6.19-8.38-6.19-4.59,0-7.19,2.04-7.19,5.65s2.14,4.96,9.01,6.61c11.39,2.75,13.49,7.15,13.49,12.35,0,6.58-4.89,11.59-14.77,11.59s-14.52-5.37-15.37-11.69h5.99Z"/>
        <path class="cls-2" d="M748.75,113.99h-12.7v-5h31.35v5h-12.71v34.78h-5.93v-34.78Z"/>
        <path class="cls-2" d="M776.05,108.99v39.77h-5.9v-39.77h5.9Z"/>
        <path class="cls-2" d="M783.78,108.99h15.66c8.64,0,12.5,4.54,12.5,9.98,0,4.6-2.6,7.58-5.59,8.66,2.76.91,6.86,3.71,6.86,9.44,0,7.37-5.65,11.7-13.36,11.7h-16.08v-39.77ZM798.44,125.37c5.45,0,7.59-2.19,7.59-5.86,0-3.41-2.46-5.73-6.88-5.73h-9.57v11.59h8.87ZM789.57,143.98h9.43c4.93,0,8.14-2.27,8.14-6.97,0-4.11-2.64-6.85-8.97-6.85h-8.61v13.82Z"/>
        <path class="cls-2" d="M818.26,108.99h5.9v34.78h20.57l-.78,5h-25.69v-39.77Z"/>
        <path class="cls-2" d="M872.88,130.45h-19.64v13.32h21.58l-.74,5h-26.61v-39.77h26.34v5h-20.56v11.46h19.64v5Z"/>
        <path class="cls-2" d="M882.55,137.58c1.05,4.62,4.23,7.04,9.78,7.04,5.9,0,8.26-2.7,8.26-6.3,0-3.85-1.95-5.92-9.7-7.79-9.65-2.33-12.79-5.67-12.79-11.22,0-6.1,4.51-10.9,13.49-10.9,9.68,0,13.63,5.51,14.18,10.85h-5.99c-.66-3.33-2.71-6.19-8.38-6.19-4.59,0-7.19,2.04-7.19,5.65s2.14,4.96,9.01,6.61c11.39,2.75,13.49,7.15,13.49,12.35,0,6.58-4.89,11.59-14.77,11.59s-14.52-5.37-15.37-11.69h5.99Z"/>
        <path class="cls-2" d="M559.62,176.57h-12v-7h32.49v7h-11.95v32.48h-8.54v-32.48Z"/>
        <path class="cls-2" d="M617.63,189.18c0,10.99-6.6,20.45-19.42,20.45s-18.88-9-18.88-20.31,7.16-20.31,19.43-20.31c11.55,0,18.87,8.09,18.87,20.18ZM588.15,189.14c0,7.71,3.38,13.54,10.38,13.54,7.59,0,10.28-6.36,10.28-13.39,0-7.47-3.06-13.34-10.42-13.34s-10.24,5.51-10.24,13.2Z"/>
        <path class="cls-2" d="M622.24,169.57h8.54v32.48h19.67l-.98,7h-27.23v-39.48Z"/>
        <path class="cls-2" d="M661.19,169.57v39.48h-8.54v-39.48h8.54Z"/>
        <path class="cls-2" d="M667.77,169.57h17.25c9.54,0,13.16,4.97,13.16,10.1,0,4.45-2.36,7.34-5.03,8.56,2.66,1,6.15,3.81,6.15,9,0,6.76-5.31,11.82-13.71,11.82h-17.83v-39.48ZM684.04,185.15c4.06,0,5.73-1.82,5.73-4.59s-2.19-4.39-5.49-4.39h-8.14v8.98h7.89ZM676.15,202.46h7.7c4.61,0,6.7-1.93,6.7-5.51,0-3.18-2.05-5.21-6.75-5.21h-7.65v10.72Z"/>
        <path class="cls-2" d="M739.91,189.18c0,10.99-6.6,20.45-19.42,20.45s-18.88-9-18.88-20.31,7.16-20.31,19.43-20.31c11.55,0,18.87,8.09,18.87,20.18ZM710.43,189.14c0,7.71,3.38,13.54,10.38,13.54,7.59,0,10.28-6.36,10.28-13.39,0-7.47-3.06-13.34-10.42-13.34s-10.24,5.51-10.24,13.2Z"/>
        <path class="cls-2" d="M751.81,209.05v-13.95c0-.44-.06-.84-.33-1.27l-13.61-24.26h9.66c3.05,5.96,7.01,13.88,8.98,18.17,1.72-4.14,6.04-12.45,9.02-18.17h8.93l-13.79,24.14c-.16.28-.32.46-.32,1.26v14.08h-8.54Z"/>
      </g>
    </g>
  </g>
</svg>